<?xml version="1.0" encoding="utf-8"?>
<!-- Generator: Adobe Illustrator 23.0.4, SVG Export Plug-In . SVG Version: 6.00 Build 0)  -->
<svg version="1.1" id="Layer_1" xmlns="http://www.w3.org/2000/svg" xmlns:xlink="http://www.w3.org/1999/xlink" x="0px" y="0px"
	 viewBox="0 0 600 600" style="enable-background:new 0 0 600 600;" xml:space="preserve">
<style type="text/css">
	.st0{fill:#C2C9E6;}
	.st1{fill:#FED700;}
	.st2{fill:#F89A20;}
</style>
<g>
	<path class="st0" d="M277.28,204.63c0,0,54.41-22.19,94.84,15.33s83.95,19.2,121.27,50.91c37.31,31.7,107.27,30.15,99.5,101.67
		s38.47,178.79-69.38,149.25c-107.85-29.54-139.34,76.4-229.31-6.22s-83.06-187.71-83.06-187.71"/>
	<path class="st1" d="M237.88,157.03c0,0,29.32-41.88-8.38-85.16S196,46.74,147.14,38.37s-50.26-1.4-86.56,27.92
		s-65.61,39.09-54.45,82.37s47.47,52.06,46.07,94.44c-1.4,42.38-11.17,82.86,41.88,82.86s131.23-5.58,134.02-22.34"/>
	<g>
		<g>
			<path class="st2" d="M243.28,144.84c0.18-12.71,0.21-25.75-3.29-38.08c-3.51-12.35-10.8-21.69-20.97-29.35
				c-21.89-16.48-48.65-30.54-76.66-30.73c-14.35-0.1-28,4.09-41.05,9.75c-12,5.21-25.8,10.56-35.55,19.54
				c-4.49,4.13-7.91,9.26-11.26,14.32c-3.99,6.03-8.27,11.66-13.01,17.12c-7.8,8.99-15.78,18.34-17.53,30.54
				c-4.14,28.88,20.74,50.03,33.05,73.24c7.46,14.06,8.2,29.05,8.46,44.64c0.22,13.1,0.66,26.45,5.99,38.64
				c4.85,11.09,13.09,20.65,23.34,27.08c11.29,7.09,23.26,9.07,35.65,3.65c11.9-5.2,23.49-12.04,34.51-18.88
				c10.44-6.48,20.53-13.74,29.25-22.44c18.68-18.63,27.24-42.62,27.4-68.79c0.17-28.38-6.17-58.04-16.07-84.55
				c-4.95-13.23-11.14-26.09-19-37.85c-3.08-4.6-6.54-9.28-11.53-11.95c-5.69-3.05-12.59-3.32-18.87-3.89
				c-14.67-1.33-30.22-2.35-44.84-0.03c-12.98,2.05-22.81,9.13-31.55,18.64c-17.01,18.51-31.51,44.47-23.35,70.2
				c3.95,12.44,12.02,22.91,18.1,34.31c7.48,14.03,9.11,29,8.94,44.7c-0.13,12.79-2.6,27.56,3.08,39.55
				c4.25,8.98,13.24,14.14,22.9,15.24c26.1,2.99,42.94-21.43,52.31-42.31c11.63-25.94,17.02-55.23,17.29-83.59
				c0.24-24.94-4.95-52.69-23.44-70.89c-8.46-8.32-19.81-13.7-31.85-12.19c-13.21,1.66-19.7,11.16-26.42,21.58
				c-7.13,11.06-13.75,23-14.97,36.35c-1.3,14.12,3.93,28.36,9.43,41.11c5.8,13.43,13.22,26.07,21.13,38.35
				c1.48,2.31,5.18,0.16,3.69-2.16c-7.25-11.26-14.1-22.81-19.65-35.02c-5.67-12.47-11.24-26.67-10.45-40.61
				c0.74-13.17,7.52-25.03,14.51-35.86c3.21-4.97,6.25-10.57,10.84-14.39c5.3-4.41,12.62-5.91,19.35-5.18
				c25.43,2.78,38.2,32.79,41.86,54.68c4.23,25.31,0.99,52.66-5.3,77.35c-3.33,13.08-7.95,25.88-14.35,37.78
				c-5.46,10.16-12.54,20.11-22.63,26.1c-9.39,5.58-21.64,6.81-31.41,1.38c-11.89-6.61-12.24-20.66-11.98-32.7
				c0.28-12.87,1.01-25.84-1.17-38.6c-2.04-11.97-7.44-22.28-13.65-32.56c-6.24-10.33-12.87-20.91-14.04-33.21
				c-1.19-12.43,2.81-24.67,8.83-35.41c6-10.7,14.09-20.99,23.55-28.86c11.23-9.36,24.71-10.58,38.79-10.62
				c6.31-0.02,12.62,0.17,18.91,0.57c7.06,0.45,15.19,0.44,21.9,2.86c6.14,2.22,9.91,7.65,13.32,12.91
				c3.64,5.61,6.92,11.45,9.88,17.45c11.41,23.1,17.96,48.51,21.6,73.93c3.69,25.74,3.53,53.44-10.53,76.26
				c-11.78,19.12-30.77,32.37-49.87,43.42c-4.87,2.82-9.81,5.51-14.77,8.15c-5.71,3.04-11.47,6.51-17.81,8.05
				c-13.18,3.21-26.66-4.88-35.59-14.02c-8.79-9.01-13.97-20.48-15.76-32.87c-1.89-13.14-0.68-26.48-1.99-39.66
				c-1.15-11.65-4.7-22.24-10.69-32.29c-6.28-10.54-14.26-19.96-20.52-30.51c-6.83-11.51-12.33-25.5-8.92-39.01
				c2.98-11.8,12.2-20.44,19.73-29.49C55.82,96.97,60.79,86,69.4,78.43c9.39-8.26,22.7-13.4,34.06-18.31
				c12.9-5.58,26.42-9.53,40.6-9.14c13.35,0.37,26.45,4.14,38.57,9.6c11.61,5.22,22.63,11.95,32.86,19.51
				c10.8,7.98,18.05,17.61,21.15,30.8c2.61,11.09,2.53,22.63,2.37,33.96C238.97,147.6,243.24,147.6,243.28,144.84L243.28,144.84z"/>
		</g>
	</g>
</g>
</svg>
