<?xml version="1.0" encoding="utf-8"?>
<!-- Generator: Adobe Illustrator 23.0.4, SVG Export Plug-In . SVG Version: 6.00 Build 0)  -->
<svg version="1.1" id="Layer_1" xmlns="http://www.w3.org/2000/svg" xmlns:xlink="http://www.w3.org/1999/xlink" x="0px" y="0px"
	 viewBox="0 0 600 600" style="enable-background:new 0 0 600 600;" xml:space="preserve">
<style type="text/css">
	.st0{fill:#F04923;}
	.st1{fill:#C6E6DB;}
	.st2{fill:#C2C9E6;}
	.st3{fill:#90CBD1;}
	.st4{fill:#C53327;}
</style>
<g>
	<path class="st0" d="M334,221.07c0,0,114.19-38.56,142.03,19.96c27.84,58.51,31.52,16.6,71.45,75.53s60.18,76.65,34.87,139.93
		S476.03,541,422.88,525.32s-156.35-40.99-108.55-129.59"/>
	<path class="st1" d="M43.21,236.08c0,0-36.74-35.35-31.22-89.87c6.42-63.53,55.42-105.8,122.17-95.72s13.85,119.25,96.98,120.71
		c83.13,1.46,124.69,7.76,120.91,74.51s-1.26,178.85-60.46,159.96c-59.2-18.89-84.39-18.89-125.95-55.42S43.21,236.08,43.21,236.08z
		"/>
	<path class="st2" d="M238.2,366.67c0,0-8.3-4.89-68.37,28.02S64.21,546.57,104.71,551.63s232.88-51.77,232.88-132.2
		S238.2,366.67,238.2,366.67z"/>
	<g>
		<g>
			<path class="st3" d="M18.95,202.13c7.25,17.49,16.87,33.88,30.29,47.37c9.63,9.68,20.89,17.21,31.95,25.11
				c12.81,9.14,22.53,21.02,33.35,32.34c15.08,15.79,30.82,31,47.69,44.87c32,26.32,68.67,48.17,109.6,56.78
				c18.57,3.91,38.94,4.85,56.98-1.92c19.45-7.3,30.77-23.01,38.68-41.57c17.56-41.23,28.44-89.63,12.39-133.09
				c-6.57-17.78-17.24-34.31-32.04-46.32c-16.23-13.16-36.05-18.92-56.46-21.69c-23.14-3.15-47.64-2.44-69.95-10.05
				c-17.17-5.85-28.46-18.69-36.9-34.23c-13.7-25.24-20.7-59.63-47.05-75.41c-15.43-9.25-34.04-8.47-50.16-1.38
				C69.52,50.77,55.36,66.3,43.68,81.46c-10.17,13.21-16.89,28.37-22.22,44.07c-5.71,16.83-10.01,34.97-8.78,52.86
				c0.58,8.44,2.55,16.63,6.44,24.18c1.07,2.08,4.22,0.24,3.14-1.84c-8.65-16.74-6.91-36.84-2.89-54.62
				c3.42-15.14,8.62-30.43,15.68-44.29c8.34-16.35,21-31.01,34.63-43.22c14.52-13,35.67-21.44,55.1-15.86
				c29.86,8.57,39.6,43.26,51.27,68.22c5.96,12.75,13,25.59,23.78,34.94c14.31,12.41,33.41,15.56,51.65,17.66
				c21.54,2.48,43.63,2.84,64.49,9.36c19.77,6.18,36.29,18.69,47.93,35.8c25.02,36.8,23.6,83.08,11.35,124.2
				c-3.33,11.18-7.32,22.25-12.03,32.92c-4.33,9.8-9.66,19.39-17.66,26.67c-14.47,13.16-34.99,16.41-53.89,15.22
				c-40.19-2.53-78.64-22.42-110.58-45.8c-16.57-12.12-32.01-25.74-46.71-40.07c-7.24-7.05-14.29-14.29-21.22-21.64
				c-5.8-6.16-11.22-12.81-17.38-18.6c-8.29-7.8-18.18-13.71-27.3-20.46c-12.45-9.21-23.4-20.08-31.96-33.05
				c-5.6-8.48-10.18-17.57-14.07-26.95C21.57,199.03,18.05,199.96,18.95,202.13L18.95,202.13z"/>
		</g>
	</g>
	<g>
		<g>
			<path class="st4" d="M381.25,447.85c2.34,0,2.34-3.64,0-3.64C378.9,444.22,378.9,447.85,381.25,447.85L381.25,447.85z"/>
		</g>
	</g>
	<g>
		<g>
			<path class="st4" d="M392.38,476.3c2.34,0,2.34-3.64,0-3.64C390.03,472.66,390.03,476.3,392.38,476.3L392.38,476.3z"/>
		</g>
	</g>
	<g>
		<g>
			<path class="st4" d="M351.57,476.3c2.34,0,2.34-3.64,0-3.64C349.23,472.66,349.22,476.3,351.57,476.3L351.57,476.3z"/>
		</g>
	</g>
	<g>
		<g>
			<path class="st4" d="M373.21,483.72c2.34,0,2.34-3.64,0-3.64C370.87,480.08,370.86,483.72,373.21,483.72L373.21,483.72z"/>
		</g>
	</g>
	<g>
		<g>
			<path class="st4" d="M396.7,509.07c2.34,0,2.34-3.64,0-3.64C394.36,505.43,394.36,509.07,396.7,509.07L396.7,509.07z"/>
		</g>
	</g>
	<g>
		<g>
			<path class="st4" d="M427.62,518.34c2.34,0,2.34-3.64,0-3.64C425.28,514.7,425.27,518.34,427.62,518.34L427.62,518.34z"/>
		</g>
	</g>
	<g>
		<g>
			<path class="st4" d="M439.37,492.99c2.34,0,2.34-3.64,0-3.64C437.02,489.35,437.02,492.99,439.37,492.99L439.37,492.99z"/>
		</g>
	</g>
	<g>
		<g>
			<path class="st4" d="M450.5,511.54c2.34,0,2.34-3.64,0-3.64C448.15,507.9,448.15,511.54,450.5,511.54L450.5,511.54z"/>
		</g>
	</g>
	<g>
		<g>
			<path class="st4" d="M479.56,521.43c2.34,0,2.34-3.64,0-3.64C477.21,517.79,477.21,521.43,479.56,521.43L479.56,521.43z"/>
		</g>
	</g>
	<g>
		<g>
			<path class="st4" d="M485.12,483.72c2.34,0,2.34-3.64,0-3.64C482.78,480.08,482.77,483.72,485.12,483.72L485.12,483.72z"/>
		</g>
	</g>
	<g>
		<g>
			<path class="st4" d="M467.19,486.19c2.34,0,2.34-3.64,0-3.64C464.85,482.55,464.84,486.19,467.19,486.19L467.19,486.19z"/>
		</g>
	</g>
	<g>
		<g>
			<path class="st4" d="M470.28,497.94c2.34,0,2.34-3.64,0-3.64C467.94,494.3,467.94,497.94,470.28,497.94L470.28,497.94z"/>
		</g>
	</g>
	<g>
		<g>
			<path class="st4" d="M522.22,499.79c2.34,0,2.34-3.64,0-3.64C519.88,496.15,519.87,499.79,522.22,499.79L522.22,499.79z"/>
		</g>
	</g>
	<g>
		<g>
			<path class="st4" d="M503.05,511.54c2.34,0,2.34-3.64,0-3.64C500.71,507.9,500.71,511.54,503.05,511.54L503.05,511.54z"/>
		</g>
	</g>
	<g>
		<g>
			<path class="st4" d="M503.05,502.26c2.34,0,2.34-3.64,0-3.64C500.71,498.63,500.71,502.26,503.05,502.26L503.05,502.26z"/>
		</g>
	</g>
	<g>
		<g>
			<path class="st4" d="M512.94,481.86c2.34,0,2.34-3.64,0-3.64C510.6,478.22,510.6,481.86,512.94,481.86L512.94,481.86z"/>
		</g>
	</g>
	<g>
		<g>
			<path class="st4" d="M542,488.04c2.34,0,2.34-3.64,0-3.64C539.66,484.41,539.66,488.04,542,488.04L542,488.04z"/>
		</g>
	</g>
	<g>
		<g>
			<path class="st4" d="M524.07,507.83c2.34,0,2.34-3.64,0-3.64C521.73,504.19,521.73,507.83,524.07,507.83L524.07,507.83z"/>
		</g>
	</g>
	<g>
		<g>
			<path class="st4" d="M494.39,454.66c2.34,0,2.34-3.64,0-3.64C492.05,451.02,492.05,454.66,494.39,454.66L494.39,454.66z"/>
		</g>
	</g>
	<g>
		<g>
			<path class="st4" d="M461.01,463.93c2.34,0,2.34-3.64,0-3.64C458.67,460.29,458.66,463.93,461.01,463.93L461.01,463.93z"/>
		</g>
	</g>
	<g>
		<g>
			<path class="st4" d="M461.62,522.05c2.34,0,2.34-3.64,0-3.64C459.28,518.41,459.28,522.05,461.62,522.05L461.62,522.05z"/>
		</g>
	</g>
	<g>
		<g>
			<path class="st4" d="M434.42,501.65c2.34,0,2.34-3.64,0-3.64C432.08,498.01,432.07,501.65,434.42,501.65L434.42,501.65z"/>
		</g>
	</g>
	<g>
		<g>
			<path class="st4" d="M412.78,507.83c2.34,0,2.34-3.64,0-3.64C410.44,504.19,410.43,507.83,412.78,507.83L412.78,507.83z"/>
		</g>
	</g>
	<g>
		<g>
			<path class="st4" d="M411.54,480.62c2.34,0,2.34-3.64,0-3.64C409.2,476.99,409.2,480.62,411.54,480.62L411.54,480.62z"/>
		</g>
	</g>
	<g>
		<g>
			<path class="st4" d="M377.54,497.32c2.34,0,2.34-3.64,0-3.64C375.19,493.68,375.19,497.32,377.54,497.32L377.54,497.32z"/>
		</g>
	</g>
	<g>
		<g>
			<path class="st4" d="M362.08,493.61c2.34,0,2.34-3.64,0-3.64C359.74,489.97,359.73,493.61,362.08,493.61L362.08,493.61z"/>
		</g>
	</g>
	<g>
		<g>
			<path class="st4" d="M372.59,470.73c2.34,0,2.34-3.64,0-3.64C370.25,467.09,370.24,470.73,372.59,470.73L372.59,470.73z"/>
		</g>
	</g>
	<g>
		<g>
			<path class="st4" d="M349.71,449.71c2.34,0,2.34-3.64,0-3.64C347.37,446.07,347.37,449.71,349.71,449.71L349.71,449.71z"/>
		</g>
	</g>
	<g>
		<g>
			<path class="st4" d="M328.07,478.15c2.34,0,2.34-3.64,0-3.64C325.73,474.51,325.73,478.15,328.07,478.15L328.07,478.15z"/>
		</g>
	</g>
	<g>
		<g>
			<path class="st4" d="M348.48,494.23c2.34,0,2.34-3.64,0-3.64C346.13,490.59,346.13,494.23,348.48,494.23L348.48,494.23z"/>
		</g>
	</g>
	<g>
		<g>
			<path class="st4" d="M358.37,421.27c2.34,0,2.34-3.64,0-3.64C356.03,417.63,356.02,421.27,358.37,421.27L358.37,421.27z"/>
		</g>
	</g>
	<g>
		<g>
			<path class="st4" d="M360.22,458.37c2.34,0,2.34-3.64,0-3.64C357.88,454.73,357.88,458.37,360.22,458.37L360.22,458.37z"/>
		</g>
	</g>
	<g>
		<g>
			<path class="st4" d="M340.44,458.37c2.34,0,2.34-3.64,0-3.64C338.1,454.73,338.09,458.37,340.44,458.37L340.44,458.37z"/>
		</g>
	</g>
	<g>
		<g>
			<path class="st4" d="M414.02,466.4c2.34,0,2.34-3.64,0-3.64C411.67,462.76,411.67,466.4,414.02,466.4L414.02,466.4z"/>
		</g>
	</g>
	<g>
		<g>
			<path class="st4" d="M396.7,498.55c2.34,0,2.34-3.64,0-3.64C394.36,494.92,394.36,498.55,396.7,498.55L396.7,498.55z"/>
		</g>
	</g>
	<g>
		<g>
			<path class="st4" d="M393.61,491.14c2.34,0,2.34-3.64,0-3.64C391.27,487.5,391.27,491.14,393.61,491.14L393.61,491.14z"/>
		</g>
	</g>
	<g>
		<g>
			<path class="st4" d="M413.4,491.14c2.34,0,2.34-3.64,0-3.64C411.06,487.5,411.05,491.14,413.4,491.14L413.4,491.14z"/>
		</g>
	</g>
	<g>
		<g>
			<path class="st4" d="M418.34,520.2c2.34,0,2.34-3.64,0-3.64C416,516.56,416,520.2,418.34,520.2L418.34,520.2z"/>
		</g>
	</g>
	<g>
		<g>
			<path class="st4" d="M425.76,513.39c2.34,0,2.34-3.64,0-3.64C423.42,509.76,423.42,513.39,425.76,513.39L425.76,513.39z"/>
		</g>
	</g>
	<g>
		<g>
			<path class="st4" d="M455.44,519.58c2.34,0,2.34-3.64,0-3.64C453.1,515.94,453.1,519.58,455.44,519.58L455.44,519.58z"/>
		</g>
	</g>
	<g>
		<g>
			<path class="st4" d="M442.46,522.05c2.34,0,2.34-3.64,0-3.64C440.12,518.41,440.11,522.05,442.46,522.05L442.46,522.05z"/>
		</g>
	</g>
	<g>
		<g>
			<path class="st4" d="M460.39,501.03c2.34,0,2.34-3.64,0-3.64C458.05,497.39,458.04,501.03,460.39,501.03L460.39,501.03z"/>
		</g>
	</g>
	<g>
		<g>
			<path class="st4" d="M477.08,507.21c2.34,0,2.34-3.64,0-3.64C474.74,503.57,474.74,507.21,477.08,507.21L477.08,507.21z"/>
		</g>
	</g>
	<g>
		<g>
			<path class="st4" d="M493.78,518.34c2.34,0,2.34-3.64,0-3.64C491.43,514.7,491.43,518.34,493.78,518.34L493.78,518.34z"/>
		</g>
	</g>
	<g>
		<g>
			<path class="st4" d="M493.78,505.97c2.34,0,2.34-3.64,0-3.64C491.43,502.34,491.43,505.97,493.78,505.97L493.78,505.97z"/>
		</g>
	</g>
	<g>
		<g>
			<path class="st4" d="M512.32,492.99c2.34,0,2.34-3.64,0-3.64C509.98,489.35,509.98,492.99,512.32,492.99L512.32,492.99z"/>
		</g>
	</g>
	<g>
		<g>
			<path class="st4" d="M514.18,518.34c2.34,0,2.34-3.64,0-3.64C511.84,514.7,511.83,518.34,514.18,518.34L514.18,518.34z"/>
		</g>
	</g>
	<g>
		<g>
			<path class="st4" d="M538.91,500.41c2.34,0,2.34-3.64,0-3.64C536.57,496.77,536.57,500.41,538.91,500.41L538.91,500.41z"/>
		</g>
	</g>
	<g>
		<g>
			<path class="st4" d="M533.35,486.81c2.34,0,2.34-3.64,0-3.64C531.01,483.17,531,486.81,533.35,486.81L533.35,486.81z"/>
		</g>
	</g>
	<g>
		<g>
			<path class="st4" d="M482.65,492.99c2.34,0,2.34-3.64,0-3.64C480.31,489.35,480.3,492.99,482.65,492.99L482.65,492.99z"/>
		</g>
	</g>
	<g>
		<g>
			<path class="st4" d="M483.88,498.55c2.34,0,2.34-3.64,0-3.64C481.54,494.92,481.54,498.55,483.88,498.55L483.88,498.55z"/>
		</g>
	</g>
	<g>
		<g>
			<path class="st4" d="M486.36,523.29c2.34,0,2.34-3.64,0-3.64C484.02,519.65,484.01,523.29,486.36,523.29L486.36,523.29z"/>
		</g>
	</g>
	<g>
		<g>
			<path class="st4" d="M461.62,507.21c2.34,0,2.34-3.64,0-3.64C459.28,503.57,459.28,507.21,461.62,507.21L461.62,507.21z"/>
		</g>
	</g>
	<g>
		<g>
			<path class="st4" d="M438.75,503.5c2.34,0,2.34-3.64,0-3.64C436.41,499.86,436.4,503.5,438.75,503.5L438.75,503.5z"/>
		</g>
	</g>
	<g>
		<g>
			<path class="st4" d="M419.58,500.41c2.34,0,2.34-3.64,0-3.64C417.24,496.77,417.24,500.41,419.58,500.41L419.58,500.41z"/>
		</g>
	</g>
	<g>
		<g>
			<path class="st4" d="M378.15,483.1c2.34,0,2.34-3.64,0-3.64C375.81,479.46,375.81,483.1,378.15,483.1L378.15,483.1z"/>
		</g>
	</g>
	<g>
		<g>
			<path class="st4" d="M357.75,482.48c2.34,0,2.34-3.64,0-3.64C355.41,478.84,355.41,482.48,357.75,482.48L357.75,482.48z"/>
		</g>
	</g>
	<g>
		<g>
			<path class="st4" d="M347.86,481.86c2.34,0,2.34-3.64,0-3.64C345.52,478.22,345.51,481.86,347.86,481.86L347.86,481.86z"/>
		</g>
	</g>
	<g>
		<g>
			<path class="st4" d="M339.82,474.44c2.34,0,2.34-3.64,0-3.64C337.48,470.8,337.47,474.44,339.82,474.44L339.82,474.44z"/>
		</g>
	</g>
	<g>
		<g>
			<path class="st4" d="M378.77,441.05c2.34,0,2.34-3.64,0-3.64C376.43,437.41,376.43,441.05,378.77,441.05L378.77,441.05z"/>
		</g>
	</g>
	<g>
		<g>
			<path class="st4" d="M385.57,428.69c2.34,0,2.34-3.64,0-3.64C383.23,425.05,383.23,428.69,385.57,428.69L385.57,428.69z"/>
		</g>
	</g>
	<g>
		<g>
			<path class="st4" d="M402.27,447.24c2.34,0,2.34-3.64,0-3.64C399.93,443.6,399.92,447.24,402.27,447.24L402.27,447.24z"/>
		</g>
	</g>
	<g>
		<g>
			<path class="st4" d="M427.62,387.26c2.34,0,2.34-3.64,0-3.64C425.28,383.62,425.27,387.26,427.62,387.26L427.62,387.26z"/>
		</g>
	</g>
	<g>
		<g>
			<path class="st4" d="M433.8,426.83c2.34,0,2.34-3.64,0-3.64C431.46,423.19,431.46,426.83,433.8,426.83L433.8,426.83z"/>
		</g>
	</g>
	<g>
		<g>
			<path class="st4" d="M435.04,475.06c2.34,0,2.34-3.64,0-3.64C432.7,471.42,432.69,475.06,435.04,475.06L435.04,475.06z"/>
		</g>
	</g>
	<g>
		<g>
			<path class="st4" d="M480.79,479.39c2.34,0,2.34-3.64,0-3.64C478.45,475.75,478.45,479.39,480.79,479.39L480.79,479.39z"/>
		</g>
	</g>
	<g>
		<g>
			<path class="st4" d="M522.84,470.11c2.34,0,2.34-3.64,0-3.64C520.49,466.47,520.49,470.11,522.84,470.11L522.84,470.11z"/>
		</g>
	</g>
	<g>
		<g>
			<path class="st4" d="M563.03,467.64c2.34,0,2.34-3.64,0-3.64C560.68,464,560.68,467.64,563.03,467.64L563.03,467.64z"/>
		</g>
	</g>
	<g>
		<g>
			<path class="st4" d="M558.08,479.39c2.34,0,2.34-3.64,0-3.64C555.74,475.75,555.73,479.39,558.08,479.39L558.08,479.39z"/>
		</g>
	</g>
	<g>
		<g>
			<path class="st4" d="M528.4,461.46c2.34,0,2.34-3.64,0-3.64C526.06,457.82,526.06,461.46,528.4,461.46L528.4,461.46z"/>
		</g>
	</g>
	<g>
		<g>
			<path class="st4" d="M499.96,486.81c2.34,0,2.34-3.64,0-3.64C497.62,483.17,497.61,486.81,499.96,486.81L499.96,486.81z"/>
		</g>
	</g>
	<g>
		<g>
			<path class="st4" d="M451.11,483.72c2.34,0,2.34-3.64,0-3.64C448.77,480.08,448.77,483.72,451.11,483.72L451.11,483.72z"/>
		</g>
	</g>
	<g>
		<g>
			<path class="st4" d="M436.89,444.76c2.34,0,2.34-3.64,0-3.64C434.55,441.12,434.55,444.76,436.89,444.76L436.89,444.76z"/>
		</g>
	</g>
	<g>
		<g>
			<path class="st4" d="M487.59,444.14c2.34,0,2.34-3.64,0-3.64C485.25,440.51,485.25,444.14,487.59,444.14L487.59,444.14z"/>
		</g>
	</g>
	<g>
		<g>
			<path class="st4" d="M496.87,406.43c2.34,0,2.34-3.64,0-3.64C494.53,402.79,494.52,406.43,496.87,406.43L496.87,406.43z"/>
		</g>
	</g>
	<g>
		<g>
			<path class="st4" d="M461.62,406.43c2.34,0,2.34-3.64,0-3.64C459.28,402.79,459.28,406.43,461.62,406.43L461.62,406.43z"/>
		</g>
	</g>
	<g>
		<g>
			<path class="st4" d="M351.28,433.56c2.34,0,2.34-3.64,0-3.64C348.94,429.92,348.93,433.56,351.28,433.56L351.28,433.56z"/>
		</g>
	</g>
	<g>
		<g>
			<path class="st4" d="M577.06,450.74c2.34,0,2.34-3.64,0-3.64C574.72,447.1,574.71,450.74,577.06,450.74L577.06,450.74z"/>
		</g>
	</g>
	<g>
		<g>
			<path class="st4" d="M552.52,450.74c2.34,0,2.34-3.64,0-3.64C550.18,447.1,550.17,450.74,552.52,450.74L552.52,450.74z"/>
		</g>
	</g>
	<g>
		<g>
			<path class="st4" d="M547.61,472.83c2.34,0,2.34-3.64,0-3.64C545.27,469.19,545.26,472.83,547.61,472.83L547.61,472.83z"/>
		</g>
	</g>
	<g>
		<g>
			<path class="st4" d="M586.88,428.65c2.34,0,2.34-3.64,0-3.64C584.53,425.01,584.53,428.65,586.88,428.65L586.88,428.65z"/>
		</g>
	</g>
</g>
</svg>
