<?xml version="1.0" encoding="utf-8"?>
<!-- Generator: Adobe Illustrator 23.0.4, SVG Export Plug-In . SVG Version: 6.00 Build 0)  -->
<svg version="1.1" id="Layer_1" xmlns="http://www.w3.org/2000/svg" xmlns:xlink="http://www.w3.org/1999/xlink" x="0px" y="0px"
	 viewBox="0 0 1600 799" style="enable-background:new 0 0 1600 799;" xml:space="preserve">
<style type="text/css">
	.st0{fill:#C6E6DB;}
	.st1{fill:#F06BA8;}
	.st2{fill:#F04923;}
	.st3{fill:#FED700;}
	.st4{fill:#F2634B;}
	.st5{fill:#C2C9E6;}
	.st6{fill:#5DC098;}
	.st7{fill:#5E81C0;}
	.st8{fill:#F89A20;}
	.st9{fill:#EF4A24;}
	.st10{fill:#ED2688;}
</style>
<g>
	<path class="st0" d="M1599.92,117.83c0,0-24.38,27.65-70.15,30.53c-45.78,2.88-49.39,81.96-78.3,111.99s-18.07,63.42,10.84,62.15
		c28.91-1.27,61.71,5.58,67.46,50.84s-20.31,140.17,13.94,149.67c34.25,9.51,56.21,15.33,56.21,15.33"/>
	<path class="st1" d="M1599.92,505.55c0,0,1.64,8.91-40.88-20c-42.52-28.91-99.17-19.37-148.55-7.88
		c-49.38,11.49-73.17,59.03-73.92,134.65s6.48,113.57-26.05,133.45s-27.11,52.92-27.11,52.92h316.51"/>
	<path class="st2" d="M1220.97,79.45c-8.87,1.19-17.42,4.12-25.25,8.46c-7.69,4.27-22.5,11.42-51.03,23.16
		c-59.17,24.35-54.79,77.07-73.91,99.38c-19.12,22.31-81.27,33.17-84.72,67.18s5.2,141.61,91,124.55
		c85.8-17.07,103.67-39.16,175.61-90.54s67.02-98.14,156.24-96.98s147.42,22.39,150.06-42.18c2.64-64.57-98.93-72.42-126.44-75.9
		C1406.47,93.28,1323.32,65.69,1220.97,79.45z"/>
	<path class="st3" d="M1077.08,552.48c0,0-3.19,42.04-38.48,59.84s-40.08,68.39,19.24,91.88c59.32,23.49,162.09,54.21,178.47,0
		s23.2-73.89,59.55-54.11c36.35,19.78,9.24,86.7,97.79,77.64c88.55-9.07,92.16-19.71,84.93-77.64
		c-7.23-57.93-67.5-32.63-68.08-88.65c-0.59-56.02,109.65-18.7,86.15-93.38s-52.08-36.91-86.15-55.38
		c-34.07-18.47,31.94-70.74-51.18-101.04"/>
	<path class="st4" d="M1154.51,260.63c0,0-6.18,0-22.67,19.92c-16.49,19.92-22.67,39.85-15.8,63.21
		c6.87,23.36-10.17,70.77,60.78,87.25s83.5,25.42,124.03-15.8s74.2,5.14,98.25-43.81c24.05-48.95-0.69-89.48-24.05-110.78
		s-75.57-70.77-127.1-59.77C1196.42,211.85,1208.1,248.95,1154.51,260.63z"/>
	<path class="st2" d="M54.87,100.22c0,0,78.81,5.57,103.62,37.9s-5.36,51.43,0,156.83c5.36,105.4,28.27,168.87-31.42,162.57
		s13.24,46.73,0,117.15s-29.39,84.72-61.51,70.43C33.44,630.8-0.08,630.8-0.08,630.8V100.22"/>
	<path class="st3" d="M220.41,138.17c0,0,0.97-3.23-69.7,38.73s-69.06,69.38-44.86,137.15s-82.29,137.73-20.98,191.5
		s122.19,108.5,145.22,29.56s63.14-130.7,63.14-130.7"/>
	<path class="st0" d="M231.7,267.26c0,0-79.06-20.98-48.41-96.81s71-135.54,156.51-122.63s17.75,152.77,124.24,154.64
		c106.49,1.87,159.74,9.94,154.9,95.46c-4.84,85.52-1.61,229.12-77.45,204.92s-108.11-24.2-161.36-71S231.7,267.26,231.7,267.26z"/>
	<path class="st5" d="M273.65,202.72c0,0-167.81,14.52-111.34,156.51s141.99,75.84,167.81,132.31
		c25.82,56.47,114.56,37.11,104.88-51.63s-11.29-96.81-58.09-171.04S273.65,202.72,273.65,202.72z"/>
	<path class="st4" d="M561.91,431.67c0,0-54.82-10.79-91.77,50.09s-6.69,105.63-34.4,168.33c-27.71,62.7-72.09,57.51-52.86,147.4
		h473.47c0,0,2.96-75.64-17.75-175.6s-91.73-36.04-131.68-83.54S641.85,406.74,561.91,431.67z"/>
	<path class="st5" d="M902.38,317.47c0,0,25.95,68.08,0,125.88s19.01,88.41,67.18,87.55c48.17-0.85,94.88,125.46,206.39,86.39
		c111.51-39.07,160.5-192.33,80.25-213.67c-80.25-21.34-193.33-97.8-273.57-91.98C902.38,317.47,902.38,317.47,902.38,317.47z"/>
	<path class="st1" d="M664.56,102.35c-35.67-13.49-75.96-2.81-100.2,26.64c-2.33,2.83-4.82,5.86-7.48,9.12
		c-30.37,37.14,10.72,67.51-10.72,108.59s-50.02,116.12-12.51,164.36s87.54,169.33,166.14,112.36s185.79-62.12,169.72-160.48
		s-5.36-217.3-85.75-224.83C739.64,133.99,698.87,115.33,664.56,102.35z"/>
	<path class="st3" d="M739.1,311.64c0,0,38.22-91.92,132.03-109.18s168.58,41,176.21,54.59c7.63,13.59-15.26,70.05-42.73,86.84
		C977.14,360.67,815.39,406.05,739.1,311.64z"/>
	<g>
		<g>
			<path class="st0" d="M306.28,150.65c10.55,7.95,19.27,17.86,25.95,29.25c1.63,2.77,5.95,0.26,4.32-2.52
				c-7.13-12.17-16.48-22.56-27.74-31.05C306.23,144.39,303.74,148.73,306.28,150.65L306.28,150.65z"/>
		</g>
	</g>
	<g>
		<g>
			<path class="st6" d="M297.38,97.58c4.18,6.77,7.23,13.93,9.21,21.63c0.8,3.11,5.63,1.79,4.82-1.33
				c-2.08-8.09-5.33-15.72-9.72-22.82C300.01,92.32,295.69,94.83,297.38,97.58L297.38,97.58z"/>
		</g>
	</g>
	<g>
		<g>
			<path class="st6" d="M332.33,135.67c1.29,5.73,2.97,11.34,5.05,16.83c1.13,2.98,5.96,1.69,4.82-1.33
				c-2.08-5.5-3.76-11.1-5.05-16.83C336.45,131.2,331.62,132.53,332.33,135.67L332.33,135.67z"/>
		</g>
	</g>
	<g>
		<g>
			<path class="st6" d="M353.28,161.88c4.43,7.05,8.87,14.09,13.3,21.14c1.71,2.72,6.04,0.21,4.32-2.52
				c-4.43-7.05-8.87-14.09-13.3-21.14C355.88,156.64,351.56,159.14,353.28,161.88L353.28,161.88z"/>
		</g>
	</g>
	<g>
		<g>
			<path class="st6" d="M361.49,204.08c4.47,4.04,8.94,8.08,13.4,12.12c2.38,2.15,5.93-1.37,3.54-3.54
				c-4.47-4.04-8.94-8.08-13.4-12.12C362.65,198.4,359.1,201.92,361.49,204.08L361.49,204.08z"/>
		</g>
	</g>
	<g>
		<g>
			<path class="st6" d="M425.25,215.93c2.49,4.51,4.99,9.01,7.48,13.52c1.56,2.82,5.88,0.3,4.32-2.52
				c-2.49-4.51-4.99-9.01-7.48-13.52C428.01,210.59,423.69,213.11,425.25,215.93L425.25,215.93z"/>
		</g>
	</g>
	<g>
		<g>
			<path class="st6" d="M423.43,254.36c2.4,5.91,5.66,11.22,9.91,15.98c2.15,2.41,5.67-1.14,3.54-3.54
				c-3.64-4.08-6.56-8.71-8.62-13.77C427.05,250.08,422.22,251.37,423.43,254.36L423.43,254.36z"/>
		</g>
	</g>
	<g>
		<g>
			<path class="st6" d="M430.73,290.44c3.44,9.52,7.64,18.68,12.65,27.48c1.59,2.8,5.91,0.28,4.32-2.52
				c-4.8-8.43-8.85-17.16-12.14-26.28C434.46,286.1,429.63,287.4,430.73,290.44L430.73,290.44z"/>
		</g>
	</g>
	<g>
		<g>
			<path class="st6" d="M488.13,319.65c-0.75,7.21,0.44,14.13,3.27,20.78c1.25,2.95,5.56,0.41,4.32-2.52
				c-2.47-5.83-3.24-11.98-2.58-18.25C493.46,316.45,488.46,316.47,488.13,319.65L488.13,319.65z"/>
		</g>
	</g>
	<g>
		<g>
			<path class="st6" d="M476.07,351.16c0,6,0,12.01,0,18.01c0,3.22,5,3.22,5,0c0-6,0-12.01,0-18.01
				C481.07,347.94,476.07,347.93,476.07,351.16L476.07,351.16z"/>
		</g>
	</g>
	<g>
		<g>
			<path class="st6" d="M449.06,384.17c0,6.5,0,13.01,0,19.51c0,3.22,5,3.22,5,0c0-6.5,0-13.01,0-19.51
				C454.06,380.95,449.06,380.95,449.06,384.17L449.06,384.17z"/>
		</g>
	</g>
	<g>
		<g>
			<path class="st6" d="M473.07,412.68c0,1,0,2,0,3c0,1.31,1.15,2.56,2.5,2.5c1.35-0.06,2.5-1.1,2.5-2.5c0-1,0-2,0-3
				c0-1.31-1.15-2.56-2.5-2.5C474.21,410.24,473.07,411.28,473.07,412.68L473.07,412.68z"/>
		</g>
	</g>
	<g>
		<g>
			<path class="st6" d="M384.49,237.1c-0.19,5.19,1,10.16,3.42,14.74c1.51,2.85,5.82,0.32,4.32-2.52c-2.03-3.83-2.9-7.9-2.74-12.22
				C389.61,233.88,384.61,233.89,384.49,237.1L384.49,237.1z"/>
		</g>
	</g>
	<g>
		<g>
			<path class="st6" d="M464.02,255.11c-0.1,4.2,1.07,8.26,3.41,11.75c1.79,2.66,6.12,0.16,4.32-2.52
				c-1.89-2.81-2.81-5.83-2.73-9.23C469.1,251.89,464.1,251.89,464.02,255.11L464.02,255.11z"/>
		</g>
	</g>
	<g>
		<g>
			<path class="st6" d="M475.98,241.6c0,4.19,1.19,8.22,3.55,11.69c1.8,2.65,6.13,0.15,4.32-2.52c-1.89-2.78-2.87-5.79-2.86-9.17
				C480.98,238.38,475.98,238.38,475.98,241.6L475.98,241.6z"/>
		</g>
	</g>
	<g>
		<g>
			<path class="st6" d="M488.76,226.91c1.99,2.51,3.98,5.02,5.97,7.53c0.84,1.06,2.66,0.88,3.54,0c1.05-1.05,0.84-2.47,0-3.54
				c-1.99-2.51-3.98-5.02-5.97-7.53c-0.84-1.06-2.66-0.88-3.54,0C487.71,224.42,487.91,225.84,488.76,226.91L488.76,226.91z"/>
		</g>
	</g>
	<g>
		<g>
			<path class="st6" d="M509.09,234.1c0,7.5,0,15.01,0,22.51c0,3.22,5,3.22,5,0c0-7.5,0-15.01,0-22.51
				C514.09,230.88,509.09,230.88,509.09,234.1L509.09,234.1z"/>
		</g>
	</g>
	<g>
		<g>
			<path class="st6" d="M500.21,277.63c-0.74,8.32-0.33,16.51,1.13,24.73c0.56,3.16,5.38,1.82,4.82-1.33
				c-1.38-7.77-1.65-15.54-0.95-23.4C505.5,274.43,500.49,274.45,500.21,277.63L500.21,277.63z"/>
		</g>
	</g>
	<g>
		<g>
			<path class="st6" d="M497.08,391.67c0,7,0,14.01,0,21.01c0,3.22,5,3.22,5,0c0-7,0-14.01,0-21.01
				C502.08,388.46,497.08,388.45,497.08,391.67L497.08,391.67z"/>
		</g>
	</g>
	<g>
		<g>
			<path class="st6" d="M474.57,414.18c0,9,0,18.01,0,27.01c0,3.22,5,3.22,5,0c0-9,0-18.01,0-27.01
				C479.57,410.97,474.57,410.96,474.57,414.18L474.57,414.18z"/>
		</g>
	</g>
	<g>
		<g>
			<path class="st6" d="M458.06,436.7c0,6.5,0,13.01,0,19.51c0,3.22,5,3.22,5,0c0-6.5,0-13.01,0-19.51
				C463.06,433.48,458.06,433.47,458.06,436.7L458.06,436.7z"/>
		</g>
	</g>
	<g>
		<g>
			<path class="st6" d="M278.4,156.62c2.95,8.73,6.81,17.05,11.62,24.91c1.68,2.74,6,0.23,4.32-2.52
				c-4.59-7.51-8.3-15.37-11.12-23.71C282.19,152.26,277.36,153.56,278.4,156.62L278.4,156.62z"/>
		</g>
	</g>
	<g>
		<g>
			<path class="st6" d="M309.44,165.76c1.01,3.86,3.69,7.19,7.33,8.88c1.22,0.57,2.69,0.35,3.42-0.9c0.63-1.08,0.33-2.85-0.9-3.42
				c-2.53-1.17-4.32-3.17-5.03-5.89C313.45,161.33,308.63,162.64,309.44,165.76L309.44,165.76z"/>
		</g>
	</g>
	<g>
		<g>
			<path class="st6" d="M357.71,89.39c-1.37,8.62,0.86,16.78,6.51,23.46c2.08,2.46,5.6-1.09,3.54-3.54
				c-4.38-5.18-6.29-11.88-5.22-18.59C363.03,87.57,358.21,86.21,357.71,89.39L357.71,89.39z"/>
		</g>
	</g>
	<g>
		<g>
			<path class="st6" d="M377.96,150.13c3.99,4.01,7.98,8.02,11.98,12.04c2.27,2.28,5.81-1.25,3.54-3.54
				c-3.99-4.01-7.98-8.02-11.98-12.04C379.22,144.31,375.69,147.84,377.96,150.13L377.96,150.13z"/>
		</g>
	</g>
	<g>
		<g>
			<path class="st7" d="M899.32,404.3c-16.86,19-23.98,45.04-20.4,70.08c3.64,25.45,19.77,53.04,47.08,57.35
				c7.98,1.26,16.09,1.2,24.09,2.34c7.63,1.09,15.15,2.96,22.41,5.55c15.14,5.39,28.68,13.99,40.48,24.85
				c11.35,10.44,21.5,22.18,33.95,31.38c10.92,8.07,23.41,13.93,36.46,17.6c51.78,14.58,113.65-3.5,150.07-42.97
				c20.46-22.17,29.07-50.51,30.03-80.26c0.46-14.3-0.04-29.11-2.91-43.17c-2.48-12.14-7.6-24.32-17.74-31.99
				c-5.64-4.27-12.3-6.8-18.92-9.13c-7.76-2.74-15.51-5.49-23.21-8.38c-15.98-6-31.8-12.42-47.43-19.27
				c-30.82-13.5-60.92-28.62-90.16-45.27c-7.24-4.12-14.43-8.35-21.56-12.65c-2.76-1.67-5.28,2.66-2.52,4.32
				c53.32,32.16,109.68,59.21,168.16,80.6c13.11,4.79,28.98,7.97,38.29,19.2c8.51,10.26,11.01,24.39,12.16,37.29
				c2.59,29.24,1.1,60.69-13.97,86.65c-26.66,45.95-86.64,69.53-138.02,64.22c-13.06-1.35-26.07-4.71-37.98-10.28
				c-12.97-6.07-23.91-14.81-34.12-24.76c-10.37-10.11-20.27-20.73-32.3-28.93c-11.24-7.66-23.87-13.38-37.03-16.83
				c-6.45-1.69-13.05-2.8-19.69-3.41c-8.07-0.73-16.32-0.69-24.14-3.06c-13.54-4.11-23.29-16-29.36-28.27
				c-11.31-22.84-10.58-51.32,1.18-73.84c2.91-5.57,6.48-10.71,10.65-15.41C904.98,405.43,901.46,401.88,899.32,404.3L899.32,404.3z
				"/>
		</g>
	</g>
	<g>
		<g>
			<path class="st6" d="M308.83,164.52c5.44,4.31,9.96,9.43,13.5,15.4c1.64,2.76,5.97,0.25,4.32-2.52
				c-3.75-6.31-8.53-11.85-14.28-16.41C309.87,159.01,306.31,162.52,308.83,164.52L308.83,164.52z"/>
		</g>
	</g>
	<g>
		<g>
			<path class="st6" d="M403.55,279.81c4.66,5.12,7.62,11.17,8.94,17.96c0.61,3.16,5.43,1.82,4.82-1.33
				c-1.48-7.62-5-14.44-10.22-20.16C404.91,273.89,401.38,277.43,403.55,279.81L403.55,279.81z"/>
		</g>
	</g>
	<g>
		<g>
			<path class="st6" d="M446.51,340.85c0,4.31,0,8.63,0,12.94c0,3.22,5,3.22,5,0c0-4.31,0-8.63,0-12.94
				C451.51,337.63,446.51,337.63,446.51,340.85L446.51,340.85z"/>
		</g>
	</g>
	<g>
		<g>
			<path class="st6" d="M459.9,288.3c3.17,5.45,5.13,11.22,6.01,17.46c0.45,3.17,5.26,1.82,4.82-1.33
				c-0.93-6.64-3.14-12.87-6.51-18.65C462.6,282.99,458.27,285.51,459.9,288.3L459.9,288.3z"/>
		</g>
	</g>
	<g>
		<g>
			<path class="st6" d="M532.11,227.38c0,3.98,0,7.96,0,11.94c0,3.22,5,3.22,5,0c0-3.98,0-7.96,0-11.94
				C537.11,224.16,532.11,224.16,532.11,227.38L532.11,227.38z"/>
		</g>
	</g>
	<g>
		<g>
			<path class="st6" d="M517.17,409.21c0.8,5.62,1.59,11.24,2.39,16.86c0.45,3.17,5.27,1.82,4.82-1.33
				c-0.8-5.62-1.59-11.24-2.39-16.86C521.54,404.71,516.73,406.06,517.17,409.21L517.17,409.21z"/>
		</g>
	</g>
	<g>
		<g>
			<path class="st6" d="M493.29,431.42c0,5.31,0,10.62,0,15.93c0,3.22,5,3.22,5,0c0-5.31,0-10.62,0-15.93
				C498.29,428.21,493.29,428.2,493.29,431.42L493.29,431.42z"/>
		</g>
	</g>
	<g>
		<g>
			<path class="st6" d="M419.26,323.83c3.77,3.45,6.09,7.91,6.49,13.03c0.25,3.19,5.25,3.21,5,0c-0.51-6.41-3.2-12.21-7.96-16.57
				C420.43,318.12,416.88,321.65,419.26,323.83L419.26,323.83z"/>
		</g>
	</g>
	<g>
		<g>
			<path class="st6" d="M498.93,357.8c0.87,8.42,3.18,16.38,7.01,23.93c1.46,2.87,5.77,0.34,4.32-2.52
				c-3.42-6.74-5.55-13.89-6.33-21.41C503.6,354.63,498.6,354.6,498.93,357.8L498.93,357.8z"/>
		</g>
	</g>
	<g>
		<g>
			<path class="st6" d="M394.64,191.21c5.96,4.29,11.13,9.54,15.33,15.56c1.83,2.62,6.17,0.12,4.32-2.52
				c-4.73-6.76-10.43-12.53-17.13-17.35C394.55,185.01,392.05,189.35,394.64,191.21L394.64,191.21z"/>
		</g>
	</g>
	<g>
		<g>
			<path class="st6" d="M330.96,198.74c6.63,2.62,12.28,7.13,16.36,12.97c1.83,2.62,6.16,0.12,4.32-2.52
				c-4.88-7-11.41-12.13-19.35-15.27C329.3,192.74,328,197.57,330.96,198.74L330.96,198.74z"/>
		</g>
	</g>
	<g>
		<g>
			<path class="st6" d="M328.84,82.08c1.04,8.03,2.85,15.79,5.61,23.41c1.09,3,5.92,1.71,4.82-1.33c-2.6-7.16-4.46-14.52-5.43-22.08
				C333.43,78.94,328.43,78.89,328.84,82.08L328.84,82.08z"/>
		</g>
	</g>
	<g>
		<g>
			<path class="st6" d="M284.17,69.35c5.96,1.96,11.18,5.21,15.61,9.64c2.28,2.28,5.82-1.26,3.54-3.54
				c-5.05-5.04-11.05-8.7-17.82-10.92C282.43,63.52,281.12,68.35,284.17,69.35L284.17,69.35z"/>
		</g>
	</g>
	<g>
		<g>
			<path class="st6" d="M267.5,81.44c5.64,6.09,9.45,13.24,11.44,21.29c0.77,3.12,5.6,1.8,4.82-1.33
				c-2.19-8.87-6.52-16.8-12.73-23.5C268.84,75.54,265.31,79.08,267.5,81.44L267.5,81.44z"/>
		</g>
	</g>
	<g>
		<g>
			<path class="st6" d="M272.61,119.99c6.45,4.81,12.66,9.91,18.65,15.28c2.39,2.14,5.94-1.38,3.54-3.54
				c-6.31-5.65-12.87-11-19.66-16.06C272.55,113.75,270.05,118.08,272.61,119.99L272.61,119.99z"/>
		</g>
	</g>
	<g>
		<g>
			<path class="st6" d="M261.14,170.3c3.53,5.16,7.06,10.33,10.59,15.49c1.81,2.64,6.14,0.14,4.32-2.52
				c-3.53-5.16-7.06-10.33-10.59-15.49C263.65,165.14,259.32,167.64,261.14,170.3L261.14,170.3z"/>
		</g>
	</g>
	<g>
		<g>
			<path class="st6" d="M227.44,192.24c0.75,4.08,2.28,7.95,4.48,11.48c1.7,2.72,6.03,0.22,4.32-2.52c-2-3.2-3.29-6.57-3.97-10.28
				C231.68,187.75,226.86,189.09,227.44,192.24L227.44,192.24z"/>
		</g>
	</g>
	<g>
		<g>
			<path class="st6" d="M196.66,200.5c-0.44,4.62,0.85,9.25,3.66,12.96c1.92,2.53,6.26,0.04,4.32-2.52
				c-2.36-3.11-3.35-6.55-2.97-10.44C201.96,197.3,196.96,197.32,196.66,200.5L196.66,200.5z"/>
		</g>
	</g>
	<g>
		<g>
			<path class="st6" d="M252.24,187.27c1.32,1.66,2.65,3.32,3.97,4.98c0.84,1.06,2.66,0.88,3.54,0c1.04-1.04,0.84-2.48,0-3.54
				c-1.32-1.66-2.65-3.32-3.97-4.98c-0.84-1.06-2.66-0.88-3.54,0C251.2,184.78,251.4,186.21,252.24,187.27L252.24,187.27z"/>
		</g>
	</g>
	<g>
		<g>
			<path class="st6" d="M308.64,137.88c4.45,3.68,8.08,8.03,10.87,13.09c1.55,2.82,5.87,0.3,4.32-2.52
				c-2.98-5.4-6.9-10.17-11.65-14.1C309.71,132.3,306.16,135.82,308.64,137.88L308.64,137.88z"/>
		</g>
	</g>
	<g>
		<g>
			<path class="st6" d="M348.76,122.56c3.11,2.66,5.15,5.98,6.07,9.96c0.73,3.13,5.55,1.81,4.82-1.33c-1.1-4.75-3.65-9-7.36-12.17
				C349.87,116.95,346.31,120.47,348.76,122.56L348.76,122.56z"/>
		</g>
	</g>
	<g>
		<g>
			<path class="st6" d="M339.83,64.69c3.64,0.54,6.77,2.38,8.76,5.51c1.72,2.71,6.05,0.2,4.32-2.52c-2.64-4.15-6.85-7.08-11.75-7.81
				C338.01,59.4,336.66,64.22,339.83,64.69L339.83,64.69z"/>
		</g>
	</g>
	<g>
		<g>
			<path class="st8" d="M757.32,312.41c3.22,0,3.22-5,0-5C754.1,307.41,754.09,312.41,757.32,312.41L757.32,312.41z"/>
		</g>
	</g>
	<g>
		<g>
			<path class="st8" d="M772.21,325.73c3.22,0,3.22-5,0-5C768.99,320.73,768.99,325.73,772.21,325.73L772.21,325.73z"/>
		</g>
	</g>
	<g>
		<g>
			<path class="st8" d="M789.46,334.36c3.22,0,3.22-5,0-5C786.24,329.36,786.24,334.36,789.46,334.36L789.46,334.36z"/>
		</g>
	</g>
	<g>
		<g>
			<path class="st8" d="M796.51,344.55c3.22,0,3.22-5,0-5C793.3,339.55,793.29,344.55,796.51,344.55L796.51,344.55z"/>
		</g>
	</g>
	<g>
		<g>
			<path class="st8" d="M816.9,349.25c3.22,0,3.22-5,0-5C813.68,344.25,813.67,349.25,816.9,349.25L816.9,349.25z"/>
		</g>
	</g>
	<g>
		<g>
			<path class="st8" d="M831.01,355.52c3.22,0,3.22-5,0-5C827.79,350.52,827.79,355.52,831.01,355.52L831.01,355.52z"/>
		</g>
	</g>
	<g>
		<g>
			<path class="st8" d="M849.04,349.25c3.22,0,3.22-5,0-5C845.82,344.25,845.82,349.25,849.04,349.25L849.04,349.25z"/>
		</g>
	</g>
	<g>
		<g>
			<path class="st8" d="M850.61,361.01c3.22,0,3.22-5,0-5C847.39,356.01,847.38,361.01,850.61,361.01L850.61,361.01z"/>
		</g>
	</g>
	<g>
		<g>
			<path class="st8" d="M875.69,361.01c3.22,0,3.22-5,0-5C872.48,356.01,872.47,361.01,875.69,361.01L875.69,361.01z"/>
		</g>
	</g>
	<g>
		<g>
			<path class="st8" d="M892.94,355.52c3.22,0,3.22-5,0-5C889.72,350.52,889.72,355.52,892.94,355.52L892.94,355.52z"/>
		</g>
	</g>
	<g>
		<g>
			<path class="st8" d="M908.62,363.36c3.22,0,3.22-5,0-5C905.4,358.36,905.4,363.36,908.62,363.36L908.62,363.36z"/>
		</g>
	</g>
	<g>
		<g>
			<path class="st8" d="M917.24,350.82c3.22,0,3.22-5,0-5C914.03,345.82,914.02,350.82,917.24,350.82L917.24,350.82z"/>
		</g>
	</g>
	<g>
		<g>
			<path class="st8" d="M936.84,355.52c3.22,0,3.22-5,0-5C933.62,350.52,933.62,355.52,936.84,355.52L936.84,355.52z"/>
		</g>
	</g>
	<g>
		<g>
			<path class="st8" d="M948.6,341.41c3.22,0,3.22-5,0-5C945.38,336.41,945.38,341.41,948.6,341.41L948.6,341.41z"/>
		</g>
	</g>
	<g>
		<g>
			<path class="st8" d="M965.06,342.2c3.22,0,3.22-5,0-5C961.85,337.2,961.84,342.2,965.06,342.2L965.06,342.2z"/>
		</g>
	</g>
	<g>
		<g>
			<path class="st8" d="M978.39,335.14c3.22,0,3.22-5,0-5C975.17,330.14,975.17,335.14,978.39,335.14L978.39,335.14z"/>
		</g>
	</g>
	<g>
		<g>
			<path class="st8" d="M991.72,342.2c3.22,0,3.22-5,0-5C988.5,337.2,988.5,342.2,991.72,342.2L991.72,342.2z"/>
		</g>
	</g>
	<g>
		<g>
			<path class="st8" d="M1001.91,319.46c3.22,0,3.22-5,0-5C998.69,314.46,998.69,319.46,1001.91,319.46L1001.91,319.46z"/>
		</g>
	</g>
	<g>
		<g>
			<path class="st8" d="M1005.83,334.36c3.22,0,3.22-5,0-5C1002.61,329.36,1002.61,334.36,1005.83,334.36L1005.83,334.36z"/>
		</g>
	</g>
	<g>
		<g>
			<path class="st8" d="M956.44,357.88c3.22,0,3.22-5,0-5C953.22,352.88,953.22,357.88,956.44,357.88L956.44,357.88z"/>
		</g>
	</g>
	<g>
		<g>
			<path class="st8" d="M1012.89,299.08c3.22,0,3.22-5,0-5C1009.67,294.08,1009.66,299.08,1012.89,299.08L1012.89,299.08z"/>
		</g>
	</g>
	<g>
		<g>
			<path class="st8" d="M1019.16,310.06c3.22,0,3.22-5,0-5C1015.94,305.06,1015.93,310.06,1019.16,310.06L1019.16,310.06z"/>
		</g>
	</g>
	<g>
		<g>
			<path class="st8" d="M1034.05,296.73c3.22,0,3.22-5,0-5C1030.83,291.73,1030.83,296.73,1034.05,296.73L1034.05,296.73z"/>
		</g>
	</g>
	<g>
		<g>
			<path class="st8" d="M1027,285.75c3.22,0,3.22-5,0-5C1023.78,280.75,1023.77,285.75,1027,285.75L1027,285.75z"/>
		</g>
	</g>
	<g>
		<g>
			<path class="st8" d="M1039.54,279.48c3.22,0,3.22-5,0-5C1036.32,274.48,1036.32,279.48,1039.54,279.48L1039.54,279.48z"/>
		</g>
	</g>
	<g>
		<g>
			<path class="st8" d="M1043.46,266.15c3.22,0,3.22-5,0-5C1040.24,261.15,1040.24,266.15,1043.46,266.15L1043.46,266.15z"/>
		</g>
	</g>
	<g>
		<g>
			<path class="st8" d="M999.56,301.43c3.22,0,3.22-5,0-5C996.34,296.43,996.34,301.43,999.56,301.43L999.56,301.43z"/>
		</g>
	</g>
	<g>
		<g>
			<path class="st8" d="M1014.45,325.73c3.22,0,3.22-5,0-5C1011.24,320.73,1011.23,325.73,1014.45,325.73L1014.45,325.73z"/>
		</g>
	</g>
	<g>
		<g>
			<path class="st8" d="M976.04,321.03c3.22,0,3.22-5,0-5C972.82,316.03,972.82,321.03,976.04,321.03L976.04,321.03z"/>
		</g>
	</g>
	<g>
		<g>
			<path class="st8" d="M945.47,321.81c3.22,0,3.22-5,0-5C942.25,316.81,942.24,321.81,945.47,321.81L945.47,321.81z"/>
		</g>
	</g>
	<g>
		<g>
			<path class="st8" d="M925.08,339.85c3.22,0,3.22-5,0-5C921.86,334.85,921.86,339.85,925.08,339.85L925.08,339.85z"/>
		</g>
	</g>
	<g>
		<g>
			<path class="st8" d="M885.88,335.93c3.22,0,3.22-5,0-5C882.67,330.93,882.66,335.93,885.88,335.93L885.88,335.93z"/>
		</g>
	</g>
	<g>
		<g>
			<path class="st8" d="M870.21,348.47c3.22,0,3.22-5,0-5C866.99,343.47,866.98,348.47,870.21,348.47L870.21,348.47z"/>
		</g>
	</g>
	<g>
		<g>
			<path class="st8" d="M834.14,332.79c3.22,0,3.22-5,0-5C830.93,327.79,830.92,332.79,834.14,332.79L834.14,332.79z"/>
		</g>
	</g>
	<g>
		<g>
			<path class="st8" d="M814.54,330.44c3.22,0,3.22-5,0-5C811.33,325.44,811.32,330.44,814.54,330.44L814.54,330.44z"/>
		</g>
	</g>
	<g>
		<g>
			<path class="st8" d="M814.54,321.03c3.22,0,3.22-5,0-5C811.33,316.03,811.32,321.03,814.54,321.03L814.54,321.03z"/>
		</g>
	</g>
	<g>
		<g>
			<path class="st8" d="M787.11,320.25c3.22,0,3.22-5,0-5C783.89,315.25,783.88,320.25,787.11,320.25L787.11,320.25z"/>
		</g>
	</g>
	<g>
		<g>
			<path class="st8" d="M784.75,305.35c3.22,0,3.22-5,0-5C781.54,300.35,781.53,305.35,784.75,305.35L784.75,305.35z"/>
		</g>
	</g>
	<g>
		<g>
			<path class="st8" d="M763.59,299.08c3.22,0,3.22-5,0-5C760.37,294.08,760.37,299.08,763.59,299.08L763.59,299.08z"/>
		</g>
	</g>
	<g>
		<g>
			<path class="st8" d="M861.71,320.19c3.22,0,3.22-5,0-5C858.49,315.19,858.49,320.19,861.71,320.19L861.71,320.19z"/>
		</g>
	</g>
	<g>
		<g>
			<path class="st8" d="M910.48,310.82c3.22,0,3.22-5,0-5C907.26,305.82,907.26,310.82,910.48,310.82L910.48,310.82z"/>
		</g>
	</g>
	<path class="st4" d="M93.34,32.24c21.1-3.17,42.59-2.67,63.33,2.35c37.05,8.97,85.03,27.36,92.79,63.25
		c12.91,59.7,0,87.13-43.57,91.97s-83.8-19.36-140.32-40.34s27.49,50.02,0,111.34s-65.64,50.02-65.64,50.02V-2.51
		C-0.08-2.51,43.95,39.67,93.34,32.24z"/>
	<g>
		<g>
			<path class="st9" d="M4.49,299.15c19.17-8.81,31.78-27.81,35.99-48.11c2.45-11.82,2.41-23.97,0.78-35.9
				c-1.77-12.91-5.85-25.13-9.04-37.71c-3.12-12.31-4.86-25.49,0.38-37.49c4.84-11.1,15-17.57,27.19-16.54
				c12.71,1.07,24.24,8.07,35.43,13.61c10.94,5.42,22.31,9.99,33.97,13.62c22.61,7.03,49.58,13.28,72.74,5.25
				c17.77-6.16,33.71-23.33,31.36-43.24c-2.42-20.46-22.18-34.37-39.19-42.84c-17.98-8.95-37.67-13.58-57.4-16.72
				C91.06,45.8,40.35,46.5,1.53,17.94c-2.59-1.91-5.09,2.43-2.52,4.32c32.32,23.77,73.37,27.55,111.94,32.29
				c20.18,2.48,40.51,5.21,59.97,11.33c18.93,5.95,40.44,15.89,51.83,32.93c13.85,20.73-0.67,44.78-22.15,52.24
				c-23.37,8.11-50.85,1.11-73.51-6.35c-11.74-3.86-22.98-8.79-34-14.37c-9.99-5.06-20.41-10.47-31.69-11.78
				c-20.49-2.38-34.5,13.13-36.83,32.43c-1.59,13.09,2.25,26.06,5.81,38.51c3.99,13.99,7.18,28.12,7.07,42.75
				c-0.19,25.36-11.39,51.51-35.47,62.57C-0.96,296.17,1.58,300.48,4.49,299.15L4.49,299.15z"/>
		</g>
	</g>
	<g>
		<g>
			<path class="st9" d="M0.22,284.59c7.09-19.38,14.26-39.23,15.27-60.04c0.95-19.49-5.53-37.74-9.06-56.64
				c-3.6-19.26-1.76-39.5,15.8-51.38c17.6-11.91,39.73-10.54,59.65-6.69c21.16,4.08,41.22,10.87,61.58,17.73
				c16.28,5.49,35.63,8.74,49.01-4.7c10.01-10.04,10.78-25.46-1.06-34.38c-5.78-4.36-13.06-6.45-20.06-7.89
				c-9.88-2.04-19.89-3.53-29.8-5.46C93.11,65.7,45.37,52.79-1.28,36.67c-3.05-1.05-4.36,3.77-1.33,4.82
				C37.38,55.31,78.16,66.77,119.52,75.7c10.02,2.16,20.08,4.18,30.16,6.05c8.95,1.66,18.16,2.71,26.92,5.27
				c7.1,2.07,14.97,5.66,17.84,13.04c3.23,8.32-1.86,16.85-8.43,21.81c-17.19,12.98-40.48,0.86-58.05-5.03
				c-18.92-6.34-38.65-11.67-58.5-13.99c-17.51-2.04-36.27-0.37-50.97,10.22C5.1,122.71-0.9,137.8-0.27,154.03
				c0.81,20.86,9.75,40.46,10.78,61.29c1.17,23.52-7.16,46.2-15.11,67.94C-5.71,286.29-0.88,287.59,0.22,284.59L0.22,284.59z"/>
		</g>
	</g>
	<g>
		<g>
			<path class="st9" d="M-0.24,62.88c14.71,0.29,28.86,4.36,43,8.08c14.17,3.72,28.34,7.44,42.52,11.17s28.34,7.44,42.52,11.17
				c6.76,1.78,13.53,3.55,20.29,5.33c4.67,1.23,17.34,2.52,17.8,9.04c0.61-0.8,1.22-1.61,1.84-2.41
				c-15.91,5.04-31.99-2.6-47.09-7.13c-16.3-4.9-33.01-8.73-49.66-12.19c-25.13-5.21-57.48-5.86-72.14,19.62
				c-1.61,2.79,2.71,5.31,4.32,2.52c16.24-28.2,53.74-20.31,79.58-14.41c15.32,3.5,30.55,7.22,45.49,12.1
				c13.21,4.31,27.05,8.67,40.83,4.31c0.99-0.31,1.91-1.3,1.84-2.41c-0.36-5.12-3.81-8.13-8.34-10.07
				c-6.25-2.68-13.33-3.85-19.89-5.57c-16.1-4.23-32.21-8.46-48.31-12.69s-32.21-8.46-48.31-12.69c-15.2-3.99-30.43-8.45-46.26-8.76
				C-3.46,57.82-3.46,62.82-0.24,62.88L-0.24,62.88z"/>
		</g>
	</g>
	<g>
		<g>
			<path class="st10" d="M1445.67,559.87c-1.17,5.07,0.24,10.22,3.93,13.91c2.28,2.28,5.81-1.25,3.54-3.54
				c-2.41-2.42-3.41-5.7-2.64-9.05C1451.21,558.07,1446.39,556.73,1445.67,559.87L1445.67,559.87z"/>
		</g>
	</g>
	<g>
		<g>
			<path class="st10" d="M1469.81,574.41c0.77,1.53,1.54,3.05,2.3,4.58c0.61,1.21,2.31,1.55,3.42,0.9c1.23-0.72,1.51-2.21,0.9-3.42
				c-0.77-1.53-1.54-3.05-2.3-4.58c-0.61-1.21-2.31-1.55-3.42-0.9C1469.48,571.71,1469.21,573.2,1469.81,574.41L1469.81,574.41z"/>
		</g>
	</g>
	<g>
		<g>
			<path class="st10" d="M1490.17,581.14c0,4.2,0,8.41,0,12.61c0,3.22,5,3.22,5,0c0-4.2,0-8.41,0-12.61
				C1495.17,577.92,1490.17,577.91,1490.17,581.14L1490.17,581.14z"/>
		</g>
	</g>
	<g>
		<g>
			<path class="st10" d="M1459.41,596.23c1.78,3.3,4.57,6.01,7.94,7.65c2.88,1.4,5.42-2.91,2.52-4.32c-2.68-1.3-4.74-3.24-6.15-5.86
				C1462.21,590.87,1457.89,593.39,1459.41,596.23L1459.41,596.23z"/>
		</g>
	</g>
	<g>
		<g>
			<path class="st10" d="M1481.24,558.41c1.16,1.52,2.31,3.04,3.46,4.56c0.81,1.07,2.16,1.64,3.42,0.9c1.06-0.62,1.72-2.34,0.9-3.42
				c-1.16-1.52-2.31-3.04-3.46-4.56c-0.82-1.07-2.16-1.64-3.42-0.9C1481.08,555.6,1480.42,557.32,1481.24,558.41L1481.24,558.41z"/>
		</g>
	</g>
	<g>
		<g>
			<path class="st10" d="M1505.75,521.06c2.28,2.69,4.55,5.38,6.83,8.06c2.08,2.46,5.6-1.09,3.54-3.54
				c-2.28-2.69-4.55-5.38-6.83-8.06C1507.2,515.06,1503.68,518.61,1505.75,521.06L1505.75,521.06z"/>
		</g>
	</g>
	<g>
		<g>
			<path class="st10" d="M1490.2,528.71c2.9,4.97,6.24,9.63,9.97,14c2.09,2.45,5.61-1.1,3.54-3.54c-3.46-4.05-6.5-8.39-9.18-12.99
				C1492.89,523.41,1488.57,525.92,1490.2,528.71L1490.2,528.71z"/>
		</g>
	</g>
	<g>
		<g>
			<path class="st10" d="M1461.52,536.43c0,0.38,0,0.76,0,1.15c0,1.31,1.15,2.56,2.5,2.5c1.35-0.06,2.5-1.1,2.5-2.5
				c0-0.38,0-0.76,0-1.15c0-1.31-1.15-2.56-2.5-2.5C1462.66,534,1461.52,535.03,1461.52,536.43L1461.52,536.43z"/>
		</g>
	</g>
	<g>
		<g>
			<path class="st10" d="M1424.84,541.02c0,7.26,0,14.52,0,21.78c0,3.22,5,3.22,5,0c0-7.26,0-14.52,0-21.78
				C1429.84,537.8,1424.84,537.8,1424.84,541.02L1424.84,541.02z"/>
		</g>
	</g>
	<g>
		<g>
			<path class="st10" d="M1434.04,578.85c-0.43,5.25-0.02,10.44,1.16,15.57c0.72,3.13,5.54,1.81,4.82-1.33
				c-1.08-4.71-1.38-9.43-0.98-14.24C1439.31,575.64,1434.3,575.66,1434.04,578.85L1434.04,578.85z"/>
		</g>
	</g>
	<g>
		<g>
			<path class="st10" d="M1517.75,562.8c-0.47,6.21,1.2,12.26,4.81,17.34c1.85,2.6,6.19,0.11,4.32-2.52
				c-3.17-4.45-4.55-9.36-4.13-14.81C1522.99,559.6,1517.99,559.61,1517.75,562.8L1517.75,562.8z"/>
		</g>
	</g>
	<g>
		<g>
			<path class="st10" d="M1523,548.52c1.53,1.53,3.06,3.06,4.58,4.58c2.28,2.28,5.81-1.26,3.54-3.54c-1.53-1.53-3.06-3.06-4.58-4.58
				C1524.25,542.7,1520.72,546.24,1523,548.52L1523,548.52z"/>
		</g>
	</g>
	<g>
		<g>
			<path class="st10" d="M1514.45,496.53c6.5,0,12.99,0,19.49,0c3.22,0,3.22-5,0-5c-6.5,0-12.99,0-19.49,0
				C1511.23,491.53,1511.23,496.53,1514.45,496.53L1514.45,496.53z"/>
		</g>
	</g>
	<g>
		<g>
			<path class="st10" d="M1513.3,481.62c4.97,0,9.93,0,14.9,0c3.22,0,3.22-5,0-5c-4.97,0-9.93,0-14.9,0
				C1510.08,476.62,1510.08,481.62,1513.3,481.62L1513.3,481.62z"/>
		</g>
	</g>
	<g>
		<g>
			<path class="st10" d="M1461.52,534.14c0,4.58,0,9.17,0,13.75c0,3.22,5,3.22,5,0c0-4.58,0-9.17,0-13.75
				C1466.52,530.93,1461.52,530.92,1461.52,534.14L1461.52,534.14z"/>
		</g>
	</g>
	<g>
		<g>
			<path class="st10" d="M1527.06,517.13c4.37,0.55,8.49,2.35,11.88,5.14c2.47,2.03,6.02-1.49,3.54-3.54
				c-4.52-3.72-9.61-5.88-15.42-6.61C1523.87,511.74,1523.9,516.74,1527.06,517.13L1527.06,517.13z"/>
		</g>
	</g>
	<g>
		<g>
			<path class="st10" d="M1546.53,495.35c1.74,3.7,4.28,6.98,7.45,9.56c2.47,2.02,6.03-1.5,3.54-3.54
				c-2.89-2.36-5.09-5.18-6.67-8.55C1549.48,489.92,1545.17,492.46,1546.53,495.35L1546.53,495.35z"/>
		</g>
	</g>
	<g>
		<g>
			<path class="st10" d="M1573.84,503.2c0,2.67,0,5.35,0,8.02c0,3.22,5,3.22,5,0c0-2.67,0-5.35,0-8.02
				C1578.84,499.98,1573.84,499.97,1573.84,503.2L1573.84,503.2z"/>
		</g>
	</g>
	<g>
		<g>
			<path class="st10" d="M1589.89,522.68c0,8.79,0,17.58,0,26.36c0,3.22,5,3.22,5,0c0-8.79,0-17.58,0-26.36
				C1594.89,519.46,1589.89,519.46,1589.89,522.68L1589.89,522.68z"/>
		</g>
	</g>
	<g>
		<g>
			<path class="st10" d="M1562.22,529.94c4.5,4.66,9.01,9.32,13.51,13.99c2.24,2.32,5.77-1.22,3.54-3.54
				c-4.5-4.66-9.01-9.32-13.51-13.99C1563.51,524.08,1559.98,527.62,1562.22,529.94L1562.22,529.94z"/>
		</g>
	</g>
	<g>
		<g>
			<path class="st10" d="M1549.77,541.02c0,3.82,0,7.64,0,11.46c0,3.22,5,3.22,5,0c0-3.82,0-7.64,0-11.46
				C1554.77,537.8,1549.77,537.8,1549.77,541.02L1549.77,541.02z"/>
		</g>
	</g>
	<g>
		<g>
			<path class="st10" d="M1547.62,567.87c-0.88,5.53,0.5,10.67,4.06,15c2.05,2.48,5.57-1.07,3.54-3.54
				c-2.32-2.81-3.35-6.53-2.78-10.14C1552.94,566.06,1548.13,564.7,1547.62,567.87L1547.62,567.87z"/>
		</g>
	</g>
	<g>
		<g>
			<path class="st10" d="M1572.7,573.11c0,6.5,0,12.99,0,19.49c0,3.22,5,3.22,5,0c0-6.5,0-12.99,0-19.49
				C1577.7,569.9,1572.7,569.89,1572.7,573.11L1572.7,573.11z"/>
		</g>
	</g>
	<g>
		<g>
			<path class="st10" d="M1585.3,594.89c0,3.06,0,6.11,0,9.17c0,3.22,5,3.22,5,0c0-3.06,0-6.11,0-9.17
				C1590.3,591.67,1585.3,591.67,1585.3,594.89L1585.3,594.89z"/>
		</g>
	</g>
	<g>
		<g>
			<path class="st10" d="M1568.11,624.69c0,2.29,0,4.58,0,6.88c0,3.22,5,3.22,5,0c0-2.29,0-4.58,0-6.88
				C1573.11,621.48,1568.11,621.47,1568.11,624.69L1568.11,624.69z"/>
		</g>
	</g>
	<g>
		<g>
			<path class="st10" d="M1561.11,605.94c0.99,3.42,0.39,6.7-1.61,9.62c-1.83,2.66,2.51,5.16,4.32,2.52
				c2.72-3.96,3.45-8.87,2.12-13.48C1565.04,601.53,1560.21,602.84,1561.11,605.94L1561.11,605.94z"/>
		</g>
	</g>
	<g>
		<g>
			<path class="st10" d="M1542.77,600.22c0.88,2.71,0.56,5.67-1.27,7.94c-2,2.48,1.52,6.04,3.54,3.54
				c2.94-3.65,4.02-8.29,2.56-12.81C1546.6,595.84,1541.77,597.14,1542.77,600.22L1542.77,600.22z"/>
		</g>
	</g>
	<g>
		<g>
			<path class="st10" d="M1516.53,605.21c0,4.2,0,8.41,0,12.61c0,3.22,5,3.22,5,0c0-4.2,0-8.41,0-12.61
				C1521.53,601.99,1516.53,601.98,1516.53,605.21L1516.53,605.21z"/>
		</g>
	</g>
	<g>
		<g>
			<path class="st10" d="M1502.78,618.96c0,3.44,0,6.88,0,10.32c0,3.22,5,3.22,5,0c0-3.44,0-6.88,0-10.32
				C1507.78,615.74,1502.78,615.74,1502.78,618.96L1502.78,618.96z"/>
		</g>
	</g>
	<g>
		<g>
			<path class="st10" d="M1485.59,614.38c0,4.97,0,9.93,0,14.9c0,3.22,5,3.22,5,0c0-4.97,0-9.93,0-14.9
				C1490.59,611.16,1485.59,611.15,1485.59,614.38L1485.59,614.38z"/>
		</g>
	</g>
	<g>
		<g>
			<path class="st10" d="M1516.61,636.82c1.31,3.89,3.65,7.02,6.91,9.49c1.08,0.81,2.8,0.17,3.42-0.9c0.75-1.28,0.18-2.6-0.9-3.42
				c-2.16-1.63-3.75-3.95-4.61-6.5C1520.41,632.46,1515.58,633.76,1516.61,636.82L1516.61,636.82z"/>
		</g>
	</g>
	<g>
		<g>
			<path class="st10" d="M1540.64,638.7c1.66,3.76,3.33,7.52,4.99,11.28c1.3,2.94,5.61,0.4,4.32-2.52
				c-1.66-3.76-3.33-7.52-4.99-11.28C1543.66,633.24,1539.35,635.78,1540.64,638.7L1540.64,638.7z"/>
		</g>
	</g>
	<g>
		<g>
			<path class="st10" d="M1580.72,649.91c0,4.58,0,9.17,0,13.75c0,3.22,5,3.22,5,0c0-4.58,0-9.17,0-13.75
				C1585.72,646.69,1580.72,646.69,1580.72,649.91L1580.72,649.91z"/>
		</g>
	</g>
	<g>
		<g>
			<path class="st10" d="M1588.74,624.69c0,2.29,0,4.58,0,6.88c0,3.22,5,3.22,5,0c0-2.29,0-4.58,0-6.88
				C1593.74,621.48,1588.74,621.47,1588.74,624.69L1588.74,624.69z"/>
		</g>
	</g>
	<g>
		<g>
			<path class="st10" d="M1584.16,699.2c0,6.11,0,12.23,0,18.34c0,3.22,5,3.22,5,0c0-6.11,0-12.23,0-18.34
				C1589.16,695.98,1584.16,695.97,1584.16,699.2L1584.16,699.2z"/>
		</g>
	</g>
	<g>
		<g>
			<path class="st10" d="M1566.97,695.76c0,2.67,0,5.35,0,8.02c0,3.22,5,3.22,5,0c0-2.67,0-5.35,0-8.02
				C1571.97,692.54,1566.97,692.53,1566.97,695.76L1566.97,695.76z"/>
		</g>
	</g>
	<g>
		<g>
			<path class="st10" d="M1564.67,672.83c0,4.97,0,9.93,0,14.9c0,3.22,5,3.22,5,0c0-4.97,0-9.93,0-14.9
				C1569.67,669.62,1564.67,669.61,1564.67,672.83L1564.67,672.83z"/>
		</g>
	</g>
	<g>
		<g>
			<path class="st10" d="M1537.16,665.96c0,4.2,0,8.41,0,12.61c0,3.22,5,3.22,5,0c0-4.2,0-8.41,0-12.61
				C1542.16,662.74,1537.16,662.73,1537.16,665.96L1537.16,665.96z"/>
		</g>
	</g>
	<g>
		<g>
			<path class="st10" d="M1516.53,660.22c0,3.44,0,6.88,0,10.32c0,3.22,5,3.22,5,0c0-3.44,0-6.88,0-10.32
				C1521.53,657.01,1516.53,657,1516.53,660.22L1516.53,660.22z"/>
		</g>
	</g>
	<g>
		<g>
			<path class="st10" d="M1492.46,644.18c0,8.02,0,16.05,0,24.07c0,3.22,5,3.22,5,0c0-8.02,0-16.05,0-24.07
				C1497.46,640.96,1492.46,640.96,1492.46,644.18L1492.46,644.18z"/>
		</g>
	</g>
	<g>
		<g>
			<path class="st10" d="M1500.49,683.15c0,3.06,0,6.11,0,9.17c0,3.22,5,3.22,5,0c0-3.06,0-6.11,0-9.17
				C1505.49,679.93,1500.49,679.93,1500.49,683.15L1500.49,683.15z"/>
		</g>
	</g>
	<g>
		<g>
			<path class="st10" d="M1486.67,698.76c1.19,3.96,3.41,7.49,6.57,10.18c2.44,2.08,5.99-1.44,3.54-3.54
				c-2.52-2.15-4.33-4.79-5.28-7.97C1490.57,694.35,1485.74,695.66,1486.67,698.76L1486.67,698.76z"/>
		</g>
	</g>
	<g>
		<g>
			<path class="st10" d="M1532.57,710.69c3.86,2.22,7.73,4.44,11.59,6.66c2.8,1.61,5.32-2.71,2.52-4.32
				c-3.86-2.22-7.73-4.44-11.59-6.66C1532.3,704.77,1529.78,709.09,1532.57,710.69L1532.57,710.69z"/>
		</g>
	</g>
	<g>
		<g>
			<path class="st10" d="M1544.25,698.25c1.16,1.9,2.32,3.8,3.49,5.7c1.68,2.74,6,0.23,4.32-2.52c-1.16-1.9-2.32-3.8-3.49-5.7
				C1546.89,692.98,1542.56,695.49,1544.25,698.25L1544.25,698.25z"/>
		</g>
	</g>
	<g>
		<g>
			<path class="st10" d="M1515.39,690.03c0,5.35,0,10.7,0,16.05c0,3.22,5,3.22,5,0c0-5.35,0-10.7,0-16.05
				C1520.39,686.81,1515.39,686.8,1515.39,690.03L1515.39,690.03z"/>
		</g>
	</g>
	<g>
		<g>
			<path class="st10" d="M1565.82,723.27c0,7.26,0,14.52,0,21.78c0,3.22,5,3.22,5,0c0-7.26,0-14.52,0-21.78
				C1570.82,720.05,1565.82,720.04,1565.82,723.27L1565.82,723.27z"/>
		</g>
	</g>
	<g>
		<g>
			<path class="st10" d="M1591.04,740.46c0,3.06,0,6.11,0,9.17c0,3.22,5,3.22,5,0c0-3.06,0-6.11,0-9.17
				C1596.04,737.24,1591.04,737.24,1591.04,740.46L1591.04,740.46z"/>
		</g>
	</g>
	<g>
		<g>
			<path class="st10" d="M1580.73,762.24c-0.54,5.7,0.78,11.28,3.75,16.17c1.66,2.75,5.99,0.24,4.32-2.52
				c-2.55-4.22-3.53-8.75-3.07-13.65C1586.04,759.04,1581.03,759.06,1580.73,762.24L1580.73,762.24z"/>
		</g>
	</g>
	<g>
		<g>
			<path class="st10" d="M1558.94,773.7c0,0.76,0,1.53,0,2.29c0,1.31,1.15,2.56,2.5,2.5c1.35-0.06,2.5-1.1,2.5-2.5
				c0-0.76,0-1.53,0-2.29c0-1.31-1.15-2.56-2.5-2.5C1560.09,771.26,1558.94,772.3,1558.94,773.7L1558.94,773.7z"/>
		</g>
	</g>
	<g>
		<g>
			<path class="st10" d="M1577.95,789.95c3.81,0.81,7.62,1.63,11.43,2.44c3.14,0.67,4.48-4.15,1.33-4.82
				c-3.81-0.81-7.62-1.63-11.43-2.44C1576.14,784.45,1574.8,789.27,1577.95,789.95L1577.95,789.95z"/>
		</g>
	</g>
	<g>
		<g>
			<path class="st10" d="M1544.96,747.36c0.36,3.44,0.73,6.88,1.09,10.32c0.34,3.17,5.34,3.2,5,0c-0.36-3.44-0.73-6.88-1.09-10.32
				C1549.63,744.19,1544.62,744.16,1544.96,747.36L1544.96,747.36z"/>
		</g>
	</g>
	<g>
		<g>
			<path class="st10" d="M1525.7,729c0,2.29,0,4.58,0,6.88c0,3.22,5,3.22,5,0c0-2.29,0-4.58,0-6.88
				C1530.7,725.78,1525.7,725.77,1525.7,729L1525.7,729z"/>
		</g>
	</g>
	<g>
		<g>
			<path class="st10" d="M1527.99,759.94c0,4.58,0,9.17,0,13.75c0,3.22,5,3.22,5,0c0-4.58,0-9.17,0-13.75
				C1532.99,756.73,1527.99,756.72,1527.99,759.94L1527.99,759.94z"/>
		</g>
	</g>
	<g>
		<g>
			<path class="st10" d="M1506.22,755.36c0,3.06,0,6.11,0,9.17c0,3.22,5,3.22,5,0c0-3.06,0-6.11,0-9.17
				C1511.22,752.14,1506.22,752.14,1506.22,755.36L1506.22,755.36z"/>
		</g>
	</g>
	<g>
		<g>
			<path class="st10" d="M1301.88,765.35c-3.09-0.92-6.28-0.1-8.68,2.02c-2.42,2.14,1.13,5.66,3.54,3.54
				c1.07-0.95,2.47-1.13,3.81-0.73C1303.64,771.09,1304.96,766.27,1301.88,765.35L1301.88,765.35z"/>
		</g>
	</g>
	<g>
		<g>
			<path class="st10" d="M1292.55,777.74c0,2.33,0,4.65,0,6.98c0,3.22,5,3.22,5,0c0-2.33,0-4.65,0-6.98
				C1297.55,774.52,1292.55,774.52,1292.55,777.74L1292.55,777.74z"/>
		</g>
	</g>
	<g>
		<g>
			<path class="st10" d="M1308.23,788.77c0.52,0,1.03,0,1.55,0c1.31,0,2.56-1.15,2.5-2.5c-0.06-1.35-1.1-2.5-2.5-2.5
				c-0.52,0-1.03,0-1.55,0c-1.31,0-2.56,1.15-2.5,2.5C1305.79,787.62,1306.83,788.77,1308.23,788.77L1308.23,788.77z"/>
		</g>
	</g>
	<g>
		<g>
			<path class="st10" d="M1313.66,778.69c2.84,0,5.69,0,8.53,0c3.22,0,3.22-5,0-5c-2.84,0-5.69,0-8.53,0
				C1310.44,773.69,1310.44,778.69,1313.66,778.69L1313.66,778.69z"/>
		</g>
	</g>
	<g>
		<g>
			<path class="st10" d="M1313.66,758.52c2.59,0,5.17,0,7.76,0c3.22,0,3.22-5,0-5c-2.59,0-5.17,0-7.76,0
				C1310.44,753.52,1310.44,758.52,1313.66,758.52L1313.66,758.52z"/>
		</g>
	</g>
	<g>
		<g>
			<path class="st10" d="M1330.55,753.7c0,2.59,0,5.17,0,7.76c0,3.22,5,3.22,5,0c0-2.59,0-5.17,0-7.76
				C1335.55,750.48,1330.55,750.47,1330.55,753.7L1330.55,753.7z"/>
		</g>
	</g>
	<g>
		<g>
			<path class="st10" d="M1335.56,734.11c3.06,0.89,4.96,4.14,4.19,7.24c-0.78,3.12,4.04,4.46,4.82,1.33
				c1.43-5.75-1.98-11.73-7.68-13.39C1333.79,728.39,1332.47,733.21,1335.56,734.11L1335.56,734.11z"/>
		</g>
	</g>
	<g>
		<g>
			<path class="st10" d="M1352.97,742.07c0.36,2.94,0.24,5.8-0.45,8.68c-0.75,3.13,4.07,4.46,4.82,1.33
				c0.8-3.3,1.04-6.64,0.63-10.01c-0.16-1.35-1.03-2.48-2.5-2.5C1354.25,739.56,1352.81,740.73,1352.97,742.07L1352.97,742.07z"/>
		</g>
	</g>
	<g>
		<g>
			<path class="st10" d="M1345.49,763.93c-0.88,3.04-0.37,6.43,1.56,8.97c0.81,1.07,2.16,1.64,3.42,0.9
				c1.06-0.62,1.72-2.34,0.9-3.42c-1.18-1.55-1.61-3.22-1.06-5.12C1351.21,762.16,1346.38,760.84,1345.49,763.93L1345.49,763.93z"/>
		</g>
	</g>
	<g>
		<g>
			<path class="st10" d="M1336.89,778.64c-1.03,3.84,2.17,8.09,6.24,7.83c1.35-0.09,2.5-1.09,2.5-2.5c0-1.28-1.15-2.59-2.5-2.5
				c-0.1,0.01-0.76-0.06-0.3,0.04c-0.07-0.01-0.62-0.22-0.38-0.11c0.25,0.12-0.28-0.19-0.33-0.23c0.34,0.26-0.2-0.24-0.21-0.26
				c0.22,0.26-0.03-0.08-0.1-0.19c-0.08-0.16-0.08-0.14-0.01,0.05c-0.03-0.08-0.05-0.15-0.08-0.23c-0.28-0.46,0.02,0.24-0.06-0.28
				c-0.07-0.46-0.08,0.2,0.05-0.29c0.35-1.3-0.44-2.72-1.75-3.08C1338.67,776.54,1337.24,777.33,1336.89,778.64L1336.89,778.64z"/>
		</g>
	</g>
	<g>
		<g>
			<path class="st10" d="M1319.93,790.33c2.99,1.86,6.51,2.7,10.01,2.24c1.35-0.17,2.48-1.02,2.5-2.5c0.01-1.22-1.16-2.67-2.5-2.5
				c-2.71,0.35-5.16-0.11-7.49-1.56C1319.71,784.3,1317.2,788.63,1319.93,790.33L1319.93,790.33z"/>
		</g>
	</g>
	<g>
		<g>
			<path class="st10" d="M1357.88,791.21c2.84-0.33,5.67-0.66,8.51-0.99c1.35-0.16,2.48-1.04,2.5-2.5c0.01-1.23-1.16-2.66-2.5-2.5
				c-2.84,0.33-5.67,0.66-8.51,0.99c-1.35,0.16-2.48,1.04-2.5,2.5C1355.36,789.94,1356.54,791.37,1357.88,791.21L1357.88,791.21z"/>
		</g>
	</g>
	<g>
		<g>
			<path class="st10" d="M1367.17,776.37c2.3-0.22,4.44,0.12,6.48,1.22c2.83,1.53,5.36-2.78,2.52-4.32
				c-2.77-1.5-5.86-2.21-9.01-1.91c-1.34,0.13-2.5,1.05-2.5,2.5C1364.67,775.12,1365.82,776.5,1367.17,776.37L1367.17,776.37z"/>
		</g>
	</g>
	<g>
		<g>
			<path class="st10" d="M1373.55,765.04c1.03,1.55,2.07,3.1,3.1,4.65c0.75,1.12,2.21,1.61,3.42,0.9c1.11-0.65,1.65-2.29,0.9-3.42
				c-1.03-1.55-2.07-3.1-3.1-4.65c-0.75-1.12-2.21-1.61-3.42-0.9C1373.33,762.27,1372.8,763.91,1373.55,765.04L1373.55,765.04z"/>
		</g>
	</g>
	<g>
		<g>
			<path class="st10" d="M1369.67,752.15c0-4.14,0-8.27,0-12.41c0-3.22-5-3.22-5,0c0,4.14,0,8.27,0,12.41
				C1364.67,755.36,1369.67,755.37,1369.67,752.15L1369.67,752.15z"/>
		</g>
	</g>
	<g>
		<g>
			<path class="st10" d="M1377.08,742.07c-0.28,2.87,0.44,5.75,1.94,8.21c1.67,2.74,6,0.23,4.32-2.52
				c-1.09-1.78-1.45-3.61-1.25-5.69c0.13-1.35-1.24-2.5-2.5-2.5C1378.12,739.57,1377.21,740.72,1377.08,742.07L1377.08,742.07z"/>
		</g>
	</g>
	<g>
		<g>
			<path class="st10" d="M1391.77,739.18c1.03,1.03,2.07,2.07,3.1,3.1c0.93,0.93,2.62,0.99,3.54,0c0.92-1,0.99-2.55,0-3.54
				c-1.03-1.03-2.07-2.07-3.1-3.1c-0.93-0.93-2.62-0.99-3.54,0C1390.85,736.64,1390.78,738.19,1391.77,739.18L1391.77,739.18z"/>
		</g>
	</g>
	<g>
		<g>
			<path class="st10" d="M1423.94,735.73c4.96,1.13,9.83,2.54,14.63,4.25c3.04,1.08,4.34-3.75,1.33-4.82
				c-4.8-1.71-9.67-3.12-14.63-4.25C1422.14,730.2,1420.8,735.02,1423.94,735.73L1423.94,735.73z"/>
		</g>
	</g>
	<g>
		<g>
			<path class="st10" d="M1453.85,731.21c0,2.59,0,5.17,0,7.76c0,3.22,5,3.22,5,0c0-2.59,0-5.17,0-7.76
				C1458.85,727.99,1453.85,727.98,1453.85,731.21L1453.85,731.21z"/>
		</g>
	</g>
	<g>
		<g>
			<path class="st10" d="M1475.57,709.49c0,2.33,0,4.65,0,6.98c0,3.22,5,3.22,5,0c0-2.33,0-4.65,0-6.98
				C1480.57,706.28,1475.57,706.27,1475.57,709.49L1475.57,709.49z"/>
		</g>
	</g>
	<g>
		<g>
			<path class="st10" d="M1499.61,718.02c0,1.81,0,3.62,0,5.43c0,3.22,5,3.22,5,0c0-1.81,0-3.62,0-5.43
				C1504.61,714.81,1499.61,714.8,1499.61,718.02L1499.61,718.02z"/>
		</g>
	</g>
	<g>
		<g>
			<path class="st10" d="M1512.9,735.77c-3.75,4.39-8.91,6.53-14.67,6.08c-3.21-0.25-3.19,4.75,0,5c6.93,0.54,13.68-2.26,18.2-7.54
				C1518.52,736.87,1515,733.32,1512.9,735.77L1512.9,735.77z"/>
		</g>
	</g>
	<g>
		<g>
			<path class="st10" d="M1474.95,749.94c-0.84,5.17,0.42,9.95,3.69,14.04c2.01,2.51,5.53-1.04,3.54-3.54
				c-2.04-2.56-2.93-5.95-2.4-9.18C1480.28,748.12,1475.47,746.77,1474.95,749.94L1474.95,749.94z"/>
		</g>
	</g>
	<g>
		<g>
			<path class="st10" d="M1480.39,735.26c0.78,0,1.55,0,2.33,0c1.31,0,2.56-1.15,2.5-2.5c-0.06-1.35-1.1-2.5-2.5-2.5
				c-0.78,0-1.55,0-2.33,0c-1.31,0-2.56,1.15-2.5,2.5C1477.96,734.11,1478.99,735.26,1480.39,735.26L1480.39,735.26z"/>
		</g>
	</g>
	<g>
		<g>
			<path class="st10" d="M1483.4,735.21c0.28-0.06,0.24-0.07-0.12-0.02c0.12-0.01,0.25-0.02,0.37-0.02c0.06,0,0.12,0,0.18,0.01
				c-0.36-0.06-0.4-0.06-0.12-0.01c0.09,0.02,0.18,0.04,0.27,0.07c0.18,0.06,0.12,0.03-0.17-0.08c0.16,0,0.77,0.55,0.26,0.12
				c0.99,0.85,2.57,1.05,3.54,0c0.86-0.93,1.06-2.63,0-3.54c-1.57-1.33-3.52-1.88-5.54-1.36c-1.27,0.32-2.16,1.81-1.75,3.08
				C1480.75,734.77,1482.04,735.56,1483.4,735.21L1483.4,735.21z"/>
		</g>
	</g>
	<g>
		<g>
			<path class="st10" d="M1494.94,779.29c-0.06,2.91,0.61,5.65,1.85,8.27c0.58,1.22,2.33,1.54,3.42,0.9c1.25-0.73,1.48-2.2,0.9-3.42
				c-0.86-1.82-1.2-3.75-1.17-5.75C1500,776.07,1495,776.07,1494.94,779.29L1494.94,779.29z"/>
		</g>
	</g>
	<g>
		<g>
			<path class="st10" d="M1518.41,789.47c3.37,0.42,6.71,0.2,10.02-0.56c3.13-0.72,1.81-5.54-1.33-4.82
				c-2.88,0.66-5.76,0.75-8.69,0.38c-1.35-0.17-2.49,1.27-2.5,2.5C1515.89,788.46,1517.07,789.3,1518.41,789.47L1518.41,789.47z"/>
		</g>
	</g>
	<g>
		<g>
			<path class="st10" d="M1540.87,785.63c-0.52,1.59,0.27,3.68,1.85,4.37c0.64,0.28,1.22,0.45,1.93,0.25
				c0.58-0.16,1.21-0.61,1.49-1.15c0.57-1.08,0.38-2.86-0.9-3.42c-0.13-0.06-0.34-0.27-0.06,0c0.12,0.06,0.21,0.15,0.28,0.27
				c0.14,0.19,0.16,0.21,0.06,0.05c0.14,0.25,0.19,0.5,0.2,0.78c-0.02-0.44-0.16,0.6-0.02,0.17c0.41-1.24-0.47-2.78-1.75-3.08
				C1542.57,783.57,1541.3,784.3,1540.87,785.63L1540.87,785.63z"/>
		</g>
	</g>
	<g>
		<g>
			<path class="st10" d="M1481.64,781.02c-2.73,0.13-5.2-2.54-4.51-5.28c0.79-3.12-4.03-4.45-4.82-1.33
				c-1.45,5.76,3.29,11.9,9.33,11.61C1484.84,785.86,1484.86,780.86,1481.64,781.02L1481.64,781.02z"/>
		</g>
	</g>
	<g>
		<g>
			<path class="st10" d="M1460.59,763.39c-1.71,3.34-3.72,6.5-6.1,9.4c-2.02,2.47,1.49,6.03,3.54,3.54
				c2.65-3.24,4.97-6.68,6.88-10.41C1466.37,763.05,1462.06,760.52,1460.59,763.39L1460.59,763.39z"/>
		</g>
	</g>
	<g>
		<g>
			<path class="st10" d="M1436.72,757.51c0.64,2.35,0.31,4.6-0.95,6.68c-1.67,2.76,2.65,5.27,4.32,2.52
				c1.93-3.19,2.44-6.94,1.46-10.53C1440.7,753.08,1435.87,754.4,1436.72,757.51L1436.72,757.51z"/>
		</g>
	</g>
	<g>
		<g>
			<path class="st10" d="M1420.65,761.57c-0.46,3.1-0.33,6.11,0.59,9.12c0.94,3.07,5.77,1.76,4.82-1.33
				c-0.64-2.1-0.91-4.27-0.59-6.46c0.2-1.33-0.33-2.69-1.75-3.08C1422.55,759.5,1420.85,760.23,1420.65,761.57L1420.65,761.57z"/>
		</g>
	</g>
	<g>
		<g>
			<path class="st10" d="M1411.2,740.51c0,2.59,0,5.17,0,7.76c0,3.22,5,3.22,5,0c0-2.59,0-5.17,0-7.76
				C1416.2,737.3,1411.2,737.29,1411.2,740.51L1411.2,740.51z"/>
		</g>
	</g>
	<g>
		<g>
			<path class="st10" d="M1397.16,749.81c-0.34,4.91,3.93,9.24,8.78,9.25c3.22,0.01,3.22-4.99,0-5c-2.28,0-3.93-2.04-3.78-4.25
				c0.09-1.35-1.22-2.5-2.5-2.5C1398.23,747.31,1397.25,748.46,1397.16,749.81L1397.16,749.81z"/>
		</g>
	</g>
	<g>
		<g>
			<path class="st10" d="M1395.56,768.4c0.84,2.45,0.43,4.98-1.37,6.89c-2.2,2.34,1.33,5.89,3.54,3.54
				c2.96-3.15,4.06-7.63,2.65-11.76C1399.35,764.05,1394.52,765.35,1395.56,768.4L1395.56,768.4z"/>
		</g>
	</g>
	<g>
		<g>
			<path class="st10" d="M1386.56,786.44c2.07,0,4.14,0,6.2,0c3.22,0,3.22-5,0-5c-2.07,0-4.14,0-6.2,0
				C1383.34,781.44,1383.34,786.44,1386.56,786.44L1386.56,786.44z"/>
		</g>
	</g>
	<g>
		<g>
			<path class="st10" d="M1417.33,783.95c0.36,3.44,0.27,6.83-0.39,10.23c-0.61,3.14,4.21,4.49,4.82,1.33
				c0.75-3.84,0.98-7.67,0.57-11.56C1422,780.78,1417,780.75,1417.33,783.95L1417.33,783.95z"/>
		</g>
	</g>
	<g>
		<g>
			<path class="st10" d="M1405,790.15c0,2.07,0,4.14,0,6.2c0,3.22,5,3.22,5,0c0-2.07,0-4.14,0-6.2
				C1410,786.93,1405,786.92,1405,790.15L1405,790.15z"/>
		</g>
	</g>
	<g>
		<g>
			<path class="st10" d="M1436.33,785.45c1.4,0.31,2.39,0.99,3.08,2.11c0.71,1.15,2.23,1.59,3.42,0.9c1.15-0.67,1.61-2.27,0.9-3.42
				c-1.36-2.2-3.53-3.84-6.07-4.41c-1.32-0.29-2.71,0.4-3.08,1.75C1434.24,783.63,1435,785.16,1436.33,785.45L1436.33,785.45z"/>
		</g>
	</g>
	<g>
		<g>
			<path class="st10" d="M1456.12,786.22c1.93,4.6,5.58,8.04,10.45,9.35c3.11,0.84,4.44-3.98,1.33-4.82
				c-3.03-0.82-5.72-2.91-6.96-5.86c-0.53-1.25-1.65-2.12-3.08-1.75C1456.69,783.45,1455.59,784.97,1456.12,786.22L1456.12,786.22z"
				/>
		</g>
	</g>
	<g>
		<g>
			<path class="st10" d="M1456.35,745.75c-2.32,0.29-4.64,0.58-6.97,0.88c-1.34,0.17-2.5,1.03-2.5,2.5c0,1.22,1.15,2.67,2.5,2.5
				c2.32-0.29,4.64-0.58,6.97-0.88c1.34-0.17,2.5-1.03,2.5-2.5C1458.85,747.03,1457.7,745.58,1456.35,745.75L1456.35,745.75z"/>
		</g>
	</g>
	<g>
		<g>
			<path class="st10" d="M1543.35,728.05c3.8,0.71,7.63,1.08,11.49,1.04c3.22-0.03,3.22-5.03,0-5c-3.42,0.03-6.8-0.23-10.17-0.86
				C1541.53,722.64,1540.19,727.45,1543.35,728.05L1543.35,728.05z"/>
		</g>
	</g>
	<g>
		<g>
			<path class="st10" d="M1560.39,658.35c5.1,0.95,10.23-1.23,12.82-5.79c1.59-2.8-2.72-5.32-4.32-2.52
				c-1.43,2.51-4.27,4.04-7.18,3.5C1558.58,652.94,1557.23,657.76,1560.39,658.35L1560.39,658.35z"/>
		</g>
	</g>
	<g>
		<g>
			<path class="st10" d="M1589.6,678.39c0.76,1.28-0.46,2.72-1.8,1.98c-2.82-1.56-5.34,2.76-2.52,4.32c2.52,1.39,5.74,1.07,7.8-1
				c2.04-2.05,2.29-5.38,0.84-7.82C1592.27,673.1,1587.95,675.61,1589.6,678.39L1589.6,678.39z"/>
		</g>
	</g>
	<g>
		<g>
			<path class="st10" d="M1529.25,594.12c1.81,0,3.62,0,5.43,0c3.22,0,3.22-5,0-5c-1.81,0-3.62,0-5.43,0
				C1526.03,589.12,1526.03,594.12,1529.25,594.12L1529.25,594.12z"/>
		</g>
	</g>
	<g>
		<g>
			<path class="st10" d="M1508.31,594.12c3.22,0,3.22-5,0-5C1505.1,589.12,1505.09,594.12,1508.31,594.12L1508.31,594.12z"/>
		</g>
	</g>
	<g>
		<g>
			<path class="st10" d="M1510.81,590.84c0-1.81,0-3.62,0-5.43c0-3.22-5-3.22-5,0c0,1.81,0,3.62,0,5.43
				C1505.81,594.06,1510.81,594.06,1510.81,590.84L1510.81,590.84z"/>
		</g>
	</g>
	<g>
		<g>
			<path class="st10" d="M1569.42,557.64c1.81,1.55,3.62,3.1,5.43,4.65c1.03,0.88,2.53,1.01,3.54,0c0.9-0.9,1.03-2.65,0-3.54
				c-1.81-1.55-3.62-3.1-5.43-4.65c-1.02-0.88-2.53-1.01-3.54,0C1568.52,555.01,1568.39,556.76,1569.42,557.64L1569.42,557.64z"/>
		</g>
	</g>
	<g>
		<g>
			<path class="st10" d="M1476.34,534.23c0,3.1,0,6.2,0,9.31c0,3.22,5,3.22,5,0c0-3.1,0-6.2,0-9.31
				C1481.34,531.01,1476.34,531.01,1476.34,534.23L1476.34,534.23z"/>
		</g>
	</g>
	<g>
		<g>
			<path class="st10" d="M1470.14,612.55c0,2.33,0,4.65,0,6.98c0,3.22,5,3.22,5,0c0-2.33,0-4.65,0-6.98
				C1475.14,609.34,1470.14,609.33,1470.14,612.55L1470.14,612.55z"/>
		</g>
	</g>
	<g>
		<g>
			<path class="st10" d="M1501.25,567c5.06-1.52,7.97-6.56,7.05-11.7c-0.56-3.16-5.38-1.82-4.82,1.33c0.43,2.42-1.27,4.87-3.56,5.55
				C1496.85,563.1,1498.16,567.93,1501.25,567L1501.25,567z"/>
		</g>
	</g>
	<g>
		<g>
			<path class="st10" d="M1503,510.31c1.65-1.79,2.83-3.99,3.18-6.42c0.2-1.33-0.33-2.69-1.75-3.08c-1.18-0.32-2.88,0.4-3.08,1.75
				c-0.24,1.6-0.8,3.02-1.9,4.22C1497.29,509.14,1500.82,512.68,1503,510.31L1503,510.31z"/>
		</g>
	</g>
	<g>
		<g>
			<path class="st10" d="M1529.82,531.9c-0.05,2.84-0.11,5.69-0.16,8.53c-0.06,3.22,4.94,3.22,5,0c0.05-2.84,0.11-5.69,0.16-8.53
				C1534.88,528.68,1529.88,528.68,1529.82,531.9L1529.82,531.9z"/>
		</g>
	</g>
	<g>
		<g>
			<path class="st10" d="M1554.55,520.09c2.2-1.52,4.52-2.42,7.17-2.83c1.34-0.21,2.07-1.88,1.75-3.08
				c-0.39-1.43-1.74-1.95-3.08-1.75c-3,0.46-5.86,1.61-8.36,3.33C1549.39,517.58,1551.89,521.92,1554.55,520.09L1554.55,520.09z"/>
		</g>
	</g>
	<g>
		<g>
			<path class="st10" d="M1585.17,571.98c1.95,3.45,6.05,5.12,9.86,4.11c3.11-0.82,1.79-5.65-1.33-4.82
				c-1.69,0.45-3.36-0.31-4.22-1.81C1587.9,566.66,1583.58,569.18,1585.17,571.98L1585.17,571.98z"/>
		</g>
	</g>
	<g>
		<g>
			<path class="st10" d="M1445.34,545.69c1.58-3.16,4.54-5.24,8.11-5.37c3.21-0.12,3.22-5.12,0-5c-5.25,0.19-10.06,3.11-12.42,7.84
				C1439.59,546.03,1443.9,548.57,1445.34,545.69L1445.34,545.69z"/>
		</g>
	</g>
</g>
</svg>
